/* XPM */
static char *result[] = {
/* columns rows colors chars-per-pixel */
"60 60 250 2 ",
"   c #0B090B",
".  c #100F0F",
"X  c #141414",
"o  c #191919",
"O  c #291B1D",
"+  c #191D22",
"@  c #251C26",
"#  c #1C242A",
"$  c #272728",
"%  c #2C2B34",
"&  c #332E31",
"*  c #333333",
"=  c #39383A",
"-  c #681D26",
";  c #4C3136",
":  c #713039",
">  c #275D03",
",  c #2D6305",
"<  c #346B08",
"1  c #356D0A",
"2  c #3A7209",
"3  c #3C730C",
"4  c #3E7610",
"5  c #41770E",
"6  c #427A0D",
"7  c #447C12",
"8  c #447915",
"9  c #46413B",
"0  c #353A53",
"q  c #213761",
"w  c #443846",
"e  c #513C4F",
"r  c #723B46",
"t  c #3B5162",
"y  c #314F74",
"u  c #464446",
"i  c #4B4A4B",
"p  c #55514E",
"a  c #4B4956",
"s  c #56495A",
"d  c #545254",
"f  c #5C5B5C",
"g  c #6C4B55",
"h  c #575868",
"j  c #4C5570",
"k  c #675D64",
"l  c #7A5862",
"z  c #52616F",
"x  c #5A6579",
"c  c #696569",
"v  c #74656C",
"b  c #7C726B",
"n  c #686B77",
"m  c #766A74",
"M  c #6C757A",
"N  c #777579",
"B  c #971B1D",
"V  c #A81D1D",
"C  c #97201E",
"Z  c #9A1F21",
"A  c #9A2627",
"S  c #913132",
"D  c #9A3736",
"F  c #A92B28",
"G  c #B72E2B",
"H  c #AD342D",
"J  c #BA392C",
"K  c #A83A35",
"L  c #B63A34",
"P  c #9C4334",
"I  c #AD402E",
"U  c #BB442A",
"Y  c #A7473A",
"T  c #B54838",
"R  c #BA583B",
"E  c #C0492A",
"W  c #8E3A41",
"Q  c #8B4C4F",
"!  c #984745",
"~  c #885456",
"^  c #975656",
"/  c #A64944",
"(  c #AC574D",
")  c #B7594A",
"_  c #95665B",
"`  c #BB6943",
"'  c #A96457",
"]  c #B26E53",
"[  c #AA7557",
"{  c #875A62",
"}  c #945C64",
"|  c #A25B60",
" . c #906B6D",
".. c #88777A",
"X. c #967777",
"o. c #AD716A",
"O. c #B77875",
"+. c #C74441",
"@. c #C65954",
"#. c #C35E5A",
"$. c #C6704E",
"%. c #C76C68",
"&. c #4B8413",
"*. c #4E8714",
"=. c #4D8517",
"-. c #528B19",
";. c #578A26",
":. c #5B9423",
">. c #61942E",
",. c #689936",
"<. c #68A22B",
"1. c #709B46",
"2. c #7AA44F",
"3. c #788A7F",
"4. c #B09259",
"5. c #85AC5E",
"6. c #998778",
"7. c #A6957B",
"8. c #B39371",
"9. c #8BAF67",
"0. c #98B976",
"q. c #AAA57A",
"w. c #B3AE71",
"e. c #B7AA74",
"r. c #CB8049",
"t. c #C3AD77",
"y. c #9FC07E",
"u. c #1E5F8B",
"i. c #285D87",
"p. c #1E618F",
"a. c #316892",
"s. c #3A74A3",
"d. c #546B8A",
"f. c #4A6A9B",
"g. c #6B7589",
"h. c #6E768C",
"j. c #777B86",
"k. c #677B97",
"l. c #857B85",
"z. c #937B89",
"x. c #A37981",
"c. c #6C8185",
"v. c #7D818C",
"b. c #6C849B",
"n. c #7A8597",
"m. c #578AAA",
"M. c #518FB1",
"N. c #688AA6",
"B. c #768AA5",
"V. c #6C92AF",
"C. c #7994AC",
"Z. c #689AB6",
"A. c #769AB5",
"S. c #838385",
"D. c #8A8687",
"F. c #86868A",
"G. c #89898A",
"H. c #948B8A",
"J. c #97978B",
"K. c #888996",
"L. c #848B9C",
"P. c #998D98",
"I. c #8B939B",
"U. c #979697",
"Y. c #9B9B9B",
"T. c #B98A86",
"R. c #A3998C",
"E. c #B0908F",
"W. c #A69896",
"Q. c #9DA990",
"!. c #ACA789",
"~. c #A6BA8B",
"^. c #B6B689",
"/. c #A7A49A",
"(. c #B4A599",
"). c #B7B698",
"_. c #858EA2",
"`. c #8D93A4",
"'. c #8996AB",
"]. c #9C9CA4",
"[. c #9398A8",
"{. c #9A9CAC",
"}. c #889BB1",
"|. c #969EB1",
" X c #A49CA5",
".X c #B09EA2",
"XX c #9BA2AE",
"oX c #89A4B9",
"OX c #9DA2B4",
"+X c #95A8B5",
"@X c #97A6B8",
"#X c #A3A3A4",
"$X c #ACAAA5",
"%X c #A4A5AB",
"&X c #ACACAE",
"*X c #B2AEA7",
"=X c #B6B5AA",
"-X c #A2A6B6",
";X c #A5AAB5",
":X c #ACADB4",
">X c #A5AAB8",
",X c #ABADB9",
"<X c #B0ADB0",
"1X c #ACB0B7",
"2X c #ADB2BB",
"3X c #B2B2B4",
"4X c #B4B5BB",
"5X c #B9B8B8",
"6X c #BCBCBE",
"7X c #CE9491",
"8X c #C4B9B8",
"9X c #D0B3B2",
"0X c #A7C488",
"qX c #B4C790",
"wX c #B8C997",
"eX c #BDD3A5",
"rX c #BCC5B2",
"tX c #C1CA96",
"yX c #C2D4AB",
"uX c #C6CAB8",
"iX c #C9D8B6",
"pX c #83B5CC",
"aX c #92B7CA",
"sX c #ACB5C4",
"dX c #B5B9C4",
"fX c #BDBEC2",
"gX c #B8C4CF",
"hX c #C3C3C3",
"jX c #C7C6C9",
"kX c #CBCACD",
"lX c #D8C3C2",
"zX c #D4CBCC",
"xX c #CFD2CA",
"cX c #D3D5CE",
"vX c #C6CAD0",
"bX c #CECED1",
"nX c #C8D0D6",
"mX c #D3D3D5",
"MX c #D7D7DA",
"NX c #D9D7DA",
"BX c #D7D9DB",
"VX c #DADADC",
"CX c #D7E4C9",
"ZX c #DEE9D1",
"AX c #E2ECD9",
"SX c #EAEAEA",
"DX c #F0F5EA",
"FX c #F4F4F4",
"GX c #F7F9F3",
"HX c #FEFFFE",
/* pixels */
"HXHXHXHXHXHXHXHXHXHXHXHXHXHXHXHXHXHXHXHXHXSXhXhXd X o o o o o o o O o d hXhXhXSXHXHXHXHXHXHXHXHXHXHXHXHXHXHXHXHXHXHXHXHX",
"HXHXHXGXCXZXCXDXAXZXCXCXAXAXZXCXCXFXhX6XhXN % & c _.k.P./.!./.P.[.4X:XN * * & 3.hXuXFXFXGXGXGXGXGXDXGXGXqXAXAXGXHXHXHXHX",
"HXHXHXqX0X~.eX1.9.,.>.2.2.2.9.0.FXU.* % % s [.P.|.-X}.,X8XuXkX4XdXMXMXjX5X6X3Xc * = U.FXiXCXiX0Xy.9.9.qX8 ,.5.ZXCXDXHXHX",
"HXHXDX<.3 8 8 4 3 4 , 3 3 GX3X$XD.a `.[.|.|.-X,XP.`._.]..XdXdXbXmXBXBXVXVXBXBXbXbXhXf F.$XFX&.7 -.&.3 &.4 *.&.,.8 5.AXHX",
"HXHXAX;.3 4 6 &.< 6 3 7 HX Xu & u }.{.P.z.x.x.x.! Q l Q ~ m l.W..X2X8XvXbXmXMXMXVXmXjXf u F.%XGX3 4 6 6 3 =.&.< 1 2.xXHX",
"HXHXwX:.3 =.=.*.4 , &.GXY.i ..z.z.o.^ K A D G G +.H S W l ~ ^ ^ { v { |.,XvXMXMXMXkXmXMXhXd d /.GX> 4 6 < 4 7 &.=.1.iXHX",
"HXHXeX2 3 4 *.6 , 4 &.Y.; l Q D D ) ) ) ) O.O.O.x.o.z...m m { .. .g.b.A.aXdXBXMXMXMXMXMXBXVX5Xh Y.HX< 6 4 &.7 , 7 ;.eXHX",
"HXHX0X:.3 2 6 &.*.#Xc = : l [ %.[ !.$X).5XfX6X8XsXsXsX X`.l.g.g.B.pXpXpXpXaXnXMXMXMXMXMXBXMXBX6Xc Y.3 , 6 2 &.2 , ,.eXHX",
"HXHXGX< -.3 6 6 /.i = b R.R.(.(.*X=X6XfX4X4X6X6XfXfX6X4X-X|.B._.pXpXpXpXpXaXnXMXMXMXMXMXNXMXkXVX4Xc f #X2 &.2 -.&.3 iXHX",
"HXGXeX&.1 3 3 6 f p !.).H.D.^.=X6XfX4X,X4X4X6XfXfX5XY.:X4X,X@XpXpX@XgXgXnXgXMXBXMXMXkXjXmXmXhXkXVX3X= f &.6 :.3 3 6 0.HX",
"HXDX9.3 , 2 HXU.u l ....m K.=X6X5X{._.4XfX6X8X8X5XP.W x.2Xn.oXoXaXgXNXNXgXgXBXMXfXvXdX6XmXMXkXfXkXBX5Xc U.HX&.-., 5 0.HX",
"HXGX0., 3 HXY.i f v k x l.OX4X-X`._.%X6X4X>XE.t.%.Y Q ..g.x j.dXnXMXMXMXBXgXvXfX|.sX,X,XmXvX@X4XhXMXVX5Xc Y.GX3 3 3 9.HX",
"HXHX0.4 HXY.u M m k m L.-X|.I.K.L.1XfX4X-X(.8.` J H ' ! D  .! T.zXVXNXMXVXuX5X+XB.B.|.>XgX'.B.OX2XhXkXMX:Xp $X3 > 6 9.HX",
"HXGX0.*.$X0 b N c v z.[.|.h.g.-X3X8X4X2XeXt.` J R ] H G O.8Xo./ T.mXmXkXNXmXyX=X_._.B.|.fX>XC.'.+XvX4XdXkXf N HX6 -.9.HX",
"HXHX0.GXD.= N c n I.[.g.d.l.-X5X6X5X,X=Xt.$.U H S F H O.lXNXhX%.T T.zXkXzXMXNXcXsXB.k.|.4X2XC.C.>XkX4X|.dXdXh U.FX3 0.HX",
"HXHX0.*X* v c c.D.U.h.d.j.<X4X-X3X<X=XtXr.J H Y H F O.jXMXNXNX9X#.K T.xXjXmXcXuXjX|.}.}.,XfX>XC.dXkXOXb._.>X[.= <X5 0XHX",
"HXGXDXD.= j.n N K.l.n j.{.[.K.J.qX!.wXt.@.J K F H O.jXNXMXNXMXVX9XL / 9X^.wXtXyXyXuX*X-X-X8X,XN.}.bX+Xb.b.`.,X* #X6 0.HX",
"HXGX5X* N n M M x j.K.[.OXd.x ~.).!.e.$.H K Y J O.hXMXMXMXMXMXMXMX7X/ ' o.8.qXqXtXtXwX=X-XdXsXC.}.bX@Xb.B.Y./.d F.SX0XHX",
"HXSXS.; N n M g.n j.[.-X_.x M ~.^.w.w.$.F A V | 8XNXMXMXBXBXVXMXMXlX%.L ^ / o.4.t.qXtXuXOX}.-X}.}.vX2Xb.b./.^. X= 3X0XHX",
"HXhX$ k n n N F.S.K.K.L.d.z M q.w.4.4.( A V G 8.xXVXMXVXmX XW.mXMXMXlX#.V Z ^ R ` ^.wXbXsXN.k.N.B.OX>X_.B./.!.U.i S.SXHX",
"HXuX@ v c n j.D.F.j.F.d.n x D.w.w.q.[ D A F O.zXMXMXMXmXG.$ & <XNXNXMX7XG / / J U 4.wXiXmX@X}._.B.B._.'.U.Q.6.[ D.% gXHX",
"SXM w N m n M v.v.v.F.n x l.R.7.9.7.( Y F ( 8XNXMXBXBXhXp . . f bXNXMXlX) H K / R ` e.tXmXVXmXfXsX+XsXdXrXI._ R ..$ uXHX",
"hX$ f m n n M l.F.I.j.j.k.K.P.E.7. .P ^ H 7XhXMXMX6XF.c c X   O Y.NXNXBX7XG / ( U E 4.tXiXMXMXbXvXMXMXxXyX!.[ R N h m HX",
"hX$ d c n n j.F.F.F.F.K.P.j. X XP.v } K / 8XMXMXNXN @ o c i . . a nXBXNXlX#.H K U E ` ^.tXMXNXmXjXMXBXuXqX8.$._ B.+X* HX",
"hX$ f k k n S.G.G.F.{.|.K.K. X{.[.P.O.L T.zXNXNX4Xl.$ . & m =   O U.mXBXBX%.V L H U E t.tXmXMXMXNXNXmX=X!.] R 6.oX;X* HX",
"u d k k c j.G.G.F.F.{.{.l.{.-XOX XT.+./ 8XNXfXN u v d o X = f X . u :XBXBX7XG / Y J E ` ^.uXMXMXMXMXzX=XJ._ _ j.;X&X* HX",
"X M c k v F.F.F.F.I.{.[.L.{.-X-X Xx.L T.kXNX:Xi O & p p + O k u w i F.MXBXzX] G F F E E t.zXMXMXMXMXbX$X[ Y { b.>X6XS.HX",
"X m c k m F.F.G.N M `.{.{.|.-X|.P.D K 8XMXMXmX3X#XXX3X5X#X X5X5X5X5XfXMXBXBX7XG K K U E t.cXMXMXMXMXzX8.I U _ '.6XfX#XHX",
"X m c v S.F.F.F.g.i.d.l.[.-X|.-Xz.F ( bXMXMXMXMXVXVXVXVXVXVXVXVXBXBXVXNXMXMXlX@.F H U U t.xXMXMXMXmX9X) U ^ b XXfXfX#XHX",
"X M v n F.F...m j i.i.a.a.k.}.'.x.K .XNXMXMXMXMXVXMXMXNXVXMXMXBXMXMXNXNXMXMXBXO.V Y T I 7XmXMXMXjX#X8.) U b A.rXfXfX%XHX",
"X N F.F.G.F.F.n a y u.p.p.a.i.a.s S z.bXkXmXVXVXBXBXVXVXVXVXBXBXMXBXMXMXBXBXVXW.K / P : .XzXbXgX|.K.` J Q b.aXuX8XrX#XHX",
"o N G.G.H.K.G.N s 0 y i.u.u.u.u.i.w e X...E.9X9XlXlXlXlXlXlXlXuXlXlXlXlXlXzX5Xj.r { U.} E.OX|.A.B...R I { oXgX6X5XgX#XHX",
"X S.G.H..XR.G.l.g w 0 0 y i.i.a.a.g S S B B C T #.@.@.@.@.@.@.@.@.@.@.@.@.| r ; a s.sXjX-XV.V.B.j./ U ^ n.6XjX6X6XgX$XHX",
"u N F.H.W.W.U.R.k e e 0 0 d.`.{.'.m ~ D B B C C A D S Z A Z A D D A D K / / ! D X.f.C.pXZ.Z.A.l.^ Y I l +XjX6X6X6X4X6.HX",
"rX$ N G.W.(.U.D.v e e y q d.{.{.K.g : P D A P S ! ^ ^ F ! D ^ X.| X.E..X5X6X5X5X'.a.s.Z.Z.k.k.k.Q P ~ k.Z.2XrX6XrX&X% HX",
"vX% N G.E.(.W.P.l.g r s y j k.z.U.~ P T Y P P P Y P P Y P Y ) [ ' o.:X=X4X8XfX6X{.s.s.M.M.h.h.h.! ~ v._.m.A.sX6XfX&X% HX",
"gX$ N D.H.W.P.(.l.x s e s d.d.K.4X3Xq.[ [ ] Y Y Y Y Y Y ] [ [ o.8.E.4X4X4X6X6X6XdXM.s.M.f.k...~ Q { OX:X}.Z.A.2XfX:X* HX",
"AXb i M F.H.R.(.z.g.r - r l n.'.4X6X8X).).7.[ [ [ 4.[ 4.t.w.q.q.(.<X*X&X4X6X6XfXfXA.M.M.N.h.l { x.P.>XfXrXaXZ.A.>Xc m HX",
"HXhX$ n v.H.(..XP.g.s S S r l.}.4X6X6X6X6X$X!.q.q.w.w.w.w.w.q.!..XW.#X#X,XfX:X1XfXZ.M.M.k.l g } 6XdX3X6X:X]._.M.V.% rXHX",
"HX6X$ l.U.U.P.Y. X_.d.r F W l.}.5X6X6X6X6X5X=X*X!.!.7.q.q.q.~.)./.$X/././.=X2X4XfXZ.M.m.h.Q l.P.fXrX6X6X1XU.X.z.m.# gXHX",
"HXgX* 6.W.J.K.{.|.OXB.v K H X._.OX5X6X6X6X6X6XfX6X3X$X$X=X=X).Y.I.XXY.=X=X5X6X6XdXA.M.A.l.v R.3X6X3X%X5X&XJ.O.] u c.SXHX",
"HXDXS.i R.R.x.{.|.'.V.k.s D / l.'.4X6X6X6X6X6X6X6XfX4X,XY.U.c.c.c.c.n.#X8XfX6X6XfX}.C.I.P.H.*X6X6X4X$X/.].W.8.] O 4X0XHX",
"HXGX4X* 6.o. .l.V.N.N.k.n D L X.{.4X6X6X6XfXfX6X6X6X6X4XI.v.j.h.n.v.`.:X3X6X6X6X6X-X{.:X(.<X6XfX6X6X6X(.R.XX!.X.; =XwXHX",
"HXHXDXD.; ( m f.f.B.aX-XN.l H ) E.%X6X6X6X8X6X6X6X6X6X6X1XXXn.K.n.n._.[.[.%X6X6XfX4X4XfX5X6X6X6X6X6X6X>X/.!.W.9 S.FXeXHX",
"HXHX0X=X& g j y f.+X6X6Xn.c P J / H.:X6X6X6X6X6X6XOX;X5XfX4XOXOX1X1X:X:X:X6X6X6X6XfXrX6X6X6X6X6X6X3X%XL.I./.7.= =X8 wXHX",
"HXHX0XFXU.% q k.3X6X6X6X4XZ.c H U X.].>X6X6X6X6X6X[.I.:X2X5X6X4X,X;XXXI.{.6X6X6X6XfXfX6X6X6X6X6X1XL._.I.n.I.p U.FX4 0XHX",
"HXGX0.=.GXN 0 +X6X6X6X6XfX,Xg.W J P H.XX:X6X6X6X6X5X4X[.I.<X2X8X6X6X4X,X-X,X6X6X6X6X6X6XfX8X6X6X5XXXL.K.%Xd N HX3 ;.0.HX",
"HXGX0X:.2 Y.0 n.6X6X6X6X6X4Xn.d.g _ o.R./.:X1X4X4X6X6X4X3X[.`.,X1X4X6X6X6X6X6X6XfX6X6X6X6X6X6X6X4X-X-X1XXXi #X1 3 7 0.HX",
"HXGX0.&.4 HXU.i D.5XrXfX6X6XsXm.d.^ ' 6.Y.Y.`._.|.%X4X6X6X4X-XOX[.:X6X8XfX6X6XfXrXfXfXfX4X4X4X4X2X,XfX#Xf Y.HX2 4 =.0XHX",
"HXHX0.=.3 3 HXU.i D.dXfX6X6XrX>Xd.v @.| D.U.Y.K.h.v.`.,X4X1X>X,X>X6X6XfX6X6X6X6X6X6XfX5X,X>X,X>X,XfX#Xf U.HX5 *., =.0XHX",
"HXGX9.=.3 7 1 =.U.i F.$X4X6X6X5X_.f.Q ) X.Q.^.I.n.b.L.`.OX-X|.OX-X2X2X4X6X6X6X6X6X6X6X6XfX6X6X6XfX X* f 6 6 2 &.7 :.qXHX",
"HXHXeX-.6 7 3 4 6 U.i M  X5X6X6X,Xf.i.! ( 7.^.^.U.n.B.`.`.>X2X,X>X,X,X4X6X6X6X6X6X6X6X6X6X6X6XfX Xf f #X3 -.7 3 =.8 eXHX",
"HXGX0X-.7 5 4 , 3 1 Y.i N #X%X5X6X,Xd.j ' ] 8.tX).H._.`.`.:X4XfX6X6X6X6X6X6X6X6X6X6X6X6X6X6X8XXXf U.5 =.6 2 6 2 &.3 0.HX",
"HXHXeX4 *.&., -., 4 HXY.u = N Y.#XfX:Xg.m ' o.!.).(.%XXX,X2X6X6X6X6X6X6X6X6X6X6X6X6X6X6X6X].d p Y.HX< 6 3 6 2 3 , &.=.HX",
"HXHXiX&.*.-.4 7 3 2 1 HX#XN 0 h F.Y.%X&Xg.v X.R.*X8X$X<XfX8XfX6X6X6X6X6X6X6X6XfX6X6XfXrX/.d j.#XHX1 3 , 2 &.3 &.1 8 2.HX",
"HXHXiX:.6 &.-.3 &.4 -.-.7 GXU.$ % z F.U.F.z x U.<X6X=X*X5XdXfXfX6XfX4X>X4X6X6X6X6X4X$Xi 9 U.FX> 7 3 3 , 5 3 7 1 =.=.AXHX",
"HXHXCX-.4 1 4 6 &.1 1 7 7 3 FX3XF.$ % t x M z d.b.'.`.I.'.sX,X,X[.'.'._.n.[.1X3X/.p = G.:XFX4 1 < 4 1 -.3 *.2 &.7 1.0XHX",
"HXHXAX1.,.;.2.;.-.3 6 *.-.3 2 3 FX5Xj.# # * 0 q q 0 a a e s s s a a t y z a * * = D.rXDX;.=.-.8 1 ;.:.>.:.>.>.1.eXqXCXHX",
"HXHXHXCXyXiXZXiXeX,.:.;.1.5.5.5.5.9.FXuXhXn + + + + O @ @ @ @ % 0 % + + + n fXfX6XFX~.eXqX0X0.0.y.~.0XeXwX0XeXDXDXFXGXHX",
"HXHXHXHXHXHXHXHXHXHXHXHXHXHXHXHXHXHXHXHXHXSXhXjXhXhX&             * fXjXfXSXHXFXHXHXHXGXHXHXHXHXHXHXHXHXHXHXHXHXHXHXHXHX"
};
