/* XPM */
static char *b693a7c4c6404144e4ebe9a6ab625ec8UG1lkUsTpAZXywQU[] = {
/* columns rows colors chars-per-pixel */
"60 60 138 2 ",
"   c #215D00",
".  c #276500",
"X  c #296601",
"o  c #2D6A01",
"O  c #2D6A08",
"+  c #326E02",
"@  c #346E0A",
"#  c #367202",
"$  c #3A7504",
"%  c #3E7904",
"&  c #37730B",
"*  c #3B750A",
"=  c #3E790A",
"-  c #3B7412",
";  c #3E7810",
":  c #427D05",
">  c #437D0A",
",  c #457E11",
"<  c #4A7F18",
"1  c #468105",
"2  c #4A8406",
"3  c #4E8905",
"4  c #46810A",
"5  c #4B840C",
"6  c #4F880C",
"7  c #508A07",
"8  c #50870E",
"9  c #528B0D",
"0  c #56900D",
"q  c #59920F",
"w  c #478011",
"e  c #4D8512",
"r  c #4F8812",
"t  c #4D8519",
"y  c #508712",
"u  c #548C13",
"i  c #588F15",
"p  c #51871C",
"a  c #558C1A",
"s  c #588F1B",
"d  c #579013",
"f  c #5A9214",
"g  c #5F9815",
"h  c #579019",
"j  c #5C931A",
"k  c #5E981F",
"l  c #619A15",
"z  c #60971C",
"x  c #629A1C",
"c  c #689F1D",
"v  c #568A20",
"b  c #5B8F24",
"n  c #5B8E29",
"m  c #5E9321",
"M  c #5D8C36",
"N  c #619622",
"B  c #649B22",
"V  c #689F23",
"C  c #63952B",
"Z  c #659A29",
"A  c #699E2B",
"S  c #649434",
"D  c #6B9B35",
"F  c #709D3D",
"G  c #69A024",
"H  c #6CA22B",
"J  c #71A52F",
"K  c #73AA2C",
"L  c #6FA431",
"P  c #75A43E",
"I  c #79AE38",
"U  c #7CAB44",
"Y  c #7BA54A",
"T  c #7FA558",
"R  c #81A757",
"E  c #80A951",
"W  c #85AB5A",
"Q  c #8AB25B",
"!  c #86AA64",
"~  c #8AAE65",
"^  c #8CAE6E",
"/  c #8DB263",
"(  c #8FB16C",
")  c #94B76D",
"_  c #94B86D",
"`  c #94B572",
"'  c #97B873",
"]  c #99BA74",
"[  c #97B679",
"{  c #9CBC7B",
"}  c #A0BF7D",
"|  c #A0C07B",
" . c #9FBC80",
".. c #A2BF84",
"X. c #A5C285",
"o. c #A8C586",
"O. c #A7C389",
"+. c #AAC68C",
"@. c #ADC693",
"#. c #AEC991",
"$. c #B1CA95",
"%. c #B5CD9A",
"&. c #B8D09E",
"*. c #B8CFA1",
"=. c #BCD2A4",
"-. c #BFD4A9",
";. c #C1D5AB",
":. c #C5D7B1",
">. c #C7DAB3",
",. c #C9DBB6",
"<. c #CDDDBB",
"1. c #CEDDBD",
"2. c #D4E2C4",
"3. c #D5E2C6",
"4. c #D7E4C8",
"5. c #D9E5CC",
"6. c #DAE5CC",
"7. c #DCE7CF",
"8. c #DCE7D1",
"9. c #E0EAD5",
"0. c #E2EBD8",
"q. c #E4EDDA",
"w. c #E6EEDE",
"e. c #E8F0E1",
"r. c #EBF1E4",
"t. c #ECF3E6",
"y. c #F1F5EB",
"u. c #F2F6EC",
"i. c #F4F7F0",
"p. c #F6F8F3",
"a. c #F7F9F4",
"s. c #F7FAF5",
"d. c #F8FAF6",
"f. c #FAFBF8",
"g. c #FAFCF8",
"h. c #FCFDFB",
"j. c #FEFEFD",
"k. c white",
/* pixels */
"k.k.k.k.k.k.k.k.k.k.k.k.k.k.k.k.k.k.k.k.k.k.k.k.k.k.k.k.k.k.k.k.k.k.k.k.k.k.k.k.k.k.k.k.k.k.k.k.k.k.k.k.k.k.k.k.k.k.k.k.",
"k.k.k.s.9.9.9.y.w.0.6.0.w.w.w.8.7.1.7.8.t.p.d.d.k.d.d.h.h.h.f.d.s.s.f.g.g.p.s.f.i.i.f.d.f.g.d.i.d.i.p.h.=.e.w.h.k.k.k.k.",
"k.k.k.=.#.@.<.R ' E P ! / / | O.$.+.<.:.;.@.` T M R ' o.o.%.%.%.%.$.-.:.e.1.1.%.*.#.=.>.2.8.1.$.#.{ { =.v Y ' 9.7.u.k.k.",
"k.k.u.I y a n w 9 8 $ 4 4 5 i 1 9 5 0 j 5 : 9 > u l > j # > j J f 5 5 f T Z a p p a r r i N f u x s e i 5 x d U p ' r.k.",
"k.k.r.D 2 y 9 f % u 4 9 s u 9 5 9 u o 2 x r 2 5 g 1 2 $ i u A u u G j t 4 9 4 B : % % x : $ 2 + 4 y 5 u 5 z i : 2 ( 4.k.",
"k.k.-.H 5 N j j r $ i q a 9 7 > a $ 3 > > > a i f = j r 9 j 9 % j u = 0 5 u y r f % > > 9 u % 9 5 + w u * r u f m T 1.k.",
"k.h.,.> 5 9 z 9 # u f H B 5 6 u 5 > 9 % > $ j # 3 G 1 r 6 i u 9 9 $ j l % d 1 6 a j > 9 % 4 4 + 2 5 : 9 u f u $ u Z ,.k.",
"k.k.*.G 2 5 9 9 m + u > c 2 s z y z i 4 8 2 i B 2 6 5 i = f 2 9 i u j f g : 4 j 5 x 5 u m 4 u u i 2 5 $ r 2 0 2 @ U ,.k.",
"k.k.d.: x 1 9 6 i w 5 1 u B j 5 5 = 5 > 5 u i V 4 9 % 6 u x x 2 5 9 4 9 2 4 w V 2 i > x a : > N a : u 9 7 i 5 x s 5 4.k.",
"k.p.>.d > r 6 9 d 2 5 u j 9 4 u 9 4 > 4 9 4 8 s f 9 r 2 d f x 5 4 4 d : 5 9 5 : 9 9 9 8 , 9 : > : i 8 : i 9 V y 5 u | k.",
"k.i.X.1 # 2 9 : f r N h 2 : 7 i i w j u 4 5 5 j g B % % 9 9 2 L 1 h $ 9 0 5 q f 4 > x i 7 : y 5 u 1 9 > > q i c # p @.k.",
"k.d.o.& w * 2 : : j d 5 8 8 > 8 9 u 2 9 a 5 9 a u 9 4 u = 1 j j r > 2 $ % u j 0 u > 0 : > q > 8 6 i 5 > s j B : 2 4 { k.",
"k.h.o.4 + , $ f O r 2 j j 2 > 9 l : j 5 + y x w 5 8 : j 6 1 u 9 5 > D % f > u j 4 f w > > # : 7 4 a u i 5 i y 8 # 9 [ k.",
"k.h.+.z 7 j : 6 u j 4 2 5 > f 5 a 5 y > 5 4 f r 9 : i u 5 * 9 2 f 9 j > u 5 5 5 u $ 1 u u e i i 5 : > u 0 2 7 5 9 x { k.",
"k.h.o.$ z 1 $ # d $ 5 4 > s u e z i i p 9 a 1 2 > V l > 1 x 9 1 g K 4 4 : l 5 2 2 & h X > j u u : # x 2 i u i 7 N 7 O.k.",
"k.h.o.5 u 5 a u a u : u 4 4 > 4 > 5 & : 5 % u 9 9 f : u 2 d : u u 5 7 5 > , u : 9 r e + 5 : 5 u 8 a : > : 7 u 5 f 5 $.k.",
"k.p.@.4 l : x 9 # A > f 9 q > > * : : s : a 8 : j 5 2 5 1 d 3 5 < 9 0 d 3 % u 5 9 9 j u p % % x a > u : j # % V 9 9 ..k.",
"k.s.=.j 9 5 q 8 r 5 7 5 z p y j 8 > : 5 , 5 : > j 5 j 9 2 4 6 5 % d # u 1 a u h 9 u w 8 > 9 4 & u # u 2 4 u 2 > q a $.k.",
"k.d.@.j 7 3 2 > : u j j i a y a & i > i j # $ : 1 7 $ 9 4 a 1 j % % d 9 + r u 2 8 > 5 y > a > : u : 5 d r 2 7 # a : &.k.",
"k.h.%.f 2 : > % : > : > > y > > : 8 : 5 > f z 5 6 j g : 4 4 5 d > o > i 4 e u h u % = 4 : : u % 9 2 5 u 6 f 9 1 1 p O.k.",
"k.k.=.V > 7 i y 5 % f 5 7 5 1 % H u > f 8 9 1 q 1 l 6 x u 4 d 1 O 5 V i 3 j u z f u u $ 4 9 > 4 : J f : 2 : 7 9 0 8 @.k.",
"k.h.$.z z 8 l u 9 8 i > 9 u > > 8 4 8 > % 4 8 z w % j 1 4 4 9 d f u 9 i 2 u 9 5 > 2 5 4 > : : 8 w a 5 9 2 a f i 7 > ..k.",
"k.k.O.e 9 : 2 $ q : z u % : u d 4 u V a 4 * 5 : u d $ d : , 2 l r 9 # : : l 9 y i w 9 > a : u u > @ = 4 % % 1 5 2 : ~ k.",
"k.k.@.u 5 i f : 7 > : 5 1 4   % a > 8 > : > > f : 8 9 f u , $ a g 6 $ 0 5 j 9 9 p f j s r a u > a % u 8 4 u i x : u O.k.",
"k.k.$.i u y 7 O f y r a : 4 : > 5 > t $ % u r u r a 9 c a + u s % f f > w h % * u u 4 5 u 5 $ y % o : 9 r 4 > 9 c : W k.",
"k.k.&.z . 5 r : 4 u > u + 4 Z 7 i 4 5 1 4 f 2 4 l u 9 K H > l i 4 % j = u u r u a 4 : > i j > u 4 p i 9 > 6 2 d x u ' k.",
"k.k.%.# 9 % u d 5 j , u : f s p x 5 r 4 a > 6 9 9 4 : : $ u x 0 $ 1 6 6 2 l r % 4 8 4 m u f 2 $ 9 j u J 9 f l : m : ~ k.",
"k.k.#.: > 5 5 $ 9 u : > 4 9 d u j 8 i 5 u 1 % h N > L : % # : + 1 0 4 r 1 # 4 5 y 4 u 6 j r i : i j : 4 8 9 * f * 9 ~ k.",
"k.k.X.$ h , j 9 : : : u : 5 > 8 4 > # > 4 > d a k 2 9 g 2 j u $ l m = : l 2 = 9 > X j 5 r 9 w & e X > A : z 2 7 6 > %.k.",
"k.k...z X # : u 4 : 2 > r u 7 9 B 1 % 8 2 e u 4 = r x H j : u 9 6 u 4 r $ + 2 $ % y y 2 r 6 1 B 4 # % u 7 < j > 9 9 ` k.",
"k.k.%.7 u x V X : & 2 9 4 5 2 2 9 f 7 9 $ 4 0 f g d f 5 9 u H u G x j l + 4 = : 4 2 8 i r 1 2 2 2 : j > > f f y 1 x ..k.",
"k.k.,.p d , 1 9 2 h 8 : u 5 9 8 2 4 4 4 s a 2 6 6 : 2 % u 6 j 9 u f * u i 9 i 1 $ 9 4 d > % 5 1 2 L > x 9 $ 2 % % m O.k.",
"k.h.=.a 9 j d 9 9 + u f & e 1 f y : 9 5 u 8 j 0 9 % 1 j 2 - = % : % > G 1 9 1 m r e w f u = 1 r 8 % 5 2 4 9 + g A + } k.",
"k.k.%.u : $ u N % 6 > x d d a 4 # 5 : : u y 4 j a x d a 0 5 j d g = 4 = d = k 4 4 u 5 5 % f 1 + # > i a u : 9 2 # 9 } k.",
"k.h.O.: 0 f + 3 2 e N = 6 7 w d > a 5 4 j 5 p 7 4 u : r G d % 0 0 2 2 5 f # w 2 u @ f r u : r 4 : l 5 8 9 7 j 9 * l ' k.",
"k.h.{ a 1 $ 2 0 , = 1 2 0 u 2 > 9 > q > : 4 9 j 2 2 2 1 $ 6 f 1 4 9 % f 6 & h f u 0 f 1 : : i 9 5 # > x 9 d l z 4 a ..k.",
"k.h.{ f # r 9 3 f 5 5 5 9 6 p r u > > y f 1 u f 6 : $ 2 9 5 9 % 2 9 $ 4 d k d 6 : d 7 * 9 8 a : y f 1 : : 9 J 8 4 $ ..k.",
"k.h.X.5 % > f : : u 5 s 1 1 9 j * * i # : > j 5 3 B j + 1 f 9 a 4 1 # 1 1 4 f q 8 A x 8 9 % y l 4 2 5 u > : 5 V > : { k.",
"k.h.=.> > ; 1 4 5 9 j i f u u r 2 : : 9 2 u z N u 9 > 9 r u u 5 4 = : # $ h 5 9 j 2 i > 8 u 8 2 4 j 9 % i z i f 5 5 { k.",
"k.g.-.: a j # 2 w i s 4 l 5 % 2 H : : * > w 2 X % f 4 = x # j d : # h 5 G 4 4 j : z > : i : y % > : r u 5 + 2 # > x { k.",
"k.h.$.l 9 j r $ 6 5 5 5 u > u e : 5 9 i 5 e i 5 f 4 r > u w 1 f 9 : d t f f 5 2 > u $ > > 7 y > 2 , 2 : 8 : 9 0 : z $.k.",
"k.g.;.5 9 : > 5 6 i r : B 4 9 % p j 5 j > 5 2 0 7 2 c # 9 x 5 9 6 6 : m # 9 2 : q d 4 i 5 J i * u > > 8 9 : : i : B %.k.",
"k.h.%.f q d u j # 1 o u 4 > : 4 $ 5 5 > < 5 f > i u i > 9 q y j 9 9 9 $ 5 > p % f > r > : 4 p 9 r > > 9 9 q l : 5 l ;.k.",
"k.k.=.1 0 2 9 f # s b 2 7 r + 5 $ 8 & u : B 9 8 : 5 7 $ : z : 9 4 0 9 1 1 1 5 h 9 9 u u 5 i > 5 4 z j i 9 : y 8 a i >.k.",
"k.k.&.1 q 2 j j > > d > > 5 5 j % > w u e 4 % > i 6 f 9 9 : 5 > 6 2 # w 1 u 5 V : 8 p u w a > X 5 > u 2 > 9 9 a V a ;.k.",
"k.g.$.9 j 9 # = j u l 5 z u $ s m i 2 5 9 % u = u f $ 9 + : 7 : H % u u X : i u 5 q : 5 a s 5 : y 2 z * 7 i q 2 1 r %.k.",
"k.h.+.N i i a * 5 4 : 8 , u 5 r : 5 r 4 i j l f q 0 d 9 i : l 8 j 4 : u s h 4 : a > 4 5 : 8 u > 5 4 i V u B 9 i > Z O.k.",
"k.d.%.H 4 9 j x V 5 % u 5 4 i 5 j * a : i : 2 g 3 9 j x : s i B = : x 6 2 e 9 9 5 5 5 : r r > a y N 7 9 2 i 9 > 9 u O.k.",
"k.d.O.j r u 5 9 5 5 s % r 5 5 5 y > 4 > > > 2 9 > 5 8 i 8 : 2 f f j > : 2 : 4 j % 5 4 u $ y 5 u 4 w 4 z 9 > i 2 y b %.k.",
"k.h...B 4 4 u f % f 7 s 4 5 % p f w Z > + y 8 : : f i 7 y s 5 u : 4 x % 4 f 2 : y j 2 $ > 5 5 j > a u 5 8 : 7 z # N &.k.",
"k.g.{ j 5 u > j 4 5 & > 5 i = 5 * 4 > 5 9 4 : d e @ 7 5 i + , 8 j 1 1 y p f 5 e > > i 8 5 $ a u 4 > 4 y 7 a , j 9 A =.k.",
"k.k.:.N 9 p 5 r 9 > 5 5 > 4 a 5 : a 5 + + u 2 i f u 7 l : a l u > 9 > > r N : $ a > > : 4 6 $ : w > y u > x a 7 j a 1.k.",
"k.h.$.N u 9 5 $ 5 > > r y r y 8 9 : > & : j > w 2 : l j j u 9 > $ a h $ 9 : % e , > i & 5 f 7 * > = u j p 2 9 2 f 4 +.k.",
"k.k.<.u z s $ x # u a 8 4 5 2 > c y 9 y : $ l 5 u + u @ u z d x L 5 d s 9 u s u z : 8 : > q * # i 5 % 9 2 7 2 5 % u m k.",
"k.k.2.i j x r a 9 4 > > : : > , y 2   : $ y + 9 2 % u : $ u 5 0 f H , 3 2 9 # u a i 8 4 u u : # u 4 2 # 2 j , d : a [ k.",
"k.k.2.H 9 d x 5 9 p x B y 5 4 > - > + 5 f 4 w u q O $ u 1 f 3 z : d 9 j : 1 4 V , $ r 8 y i , X s 5 5 # p 5 i > j j q.k.",
"k.k.8.N 9 > r u s > > 9 u 5 B = i , > u 9 5 b a j 2 1 x 4 d q & k 3 4 0 9 u 4 % u a i 8 > u t : % 9 > m w j 1 f u W #.k.",
"k.h.0.Q Y S Q D C 4 u l B 5 > 5 a $ j : Z f 4 9 l : 9 u 9 9 : 9 9 1 % 4 9 j 1 5 x s A e Z s N a , Z L P A U F W <.&.6.k.",
"k.k.k.9.1.1.q.1.,.Y D C E ` ' _ ' { ' +.) } ) X.Q ~ Q ] ' ! ^ [ { ' X.( ( } { +.O. .$.:.=.*.+.+.$.#.$.:.;.$.,.y.u.s.g.k.",
"k.k.k.k.k.k.k.k.k.k.k.k.k.k.k.k.k.k.k.k.k.k.k.k.k.k.k.k.k.k.k.k.k.k.k.h.k.k.k.k.k.k.k.k.k.k.k.k.k.k.k.k.k.k.k.k.k.k.k.k."
};
