/* XPM */
static char *result[] = {
/* columns rows colors chars-per-pixel */
"60 60 213 2 ",
"   c #090A07",
".  c #0A0B0A",
"X  c #15110D",
"o  c #1B1C18",
"O  c #25160F",
"+  c #291A12",
"@  c #2A2218",
"#  c #3E251B",
"$  c #37281A",
"%  c #373518",
"&  c #262922",
"*  c #342A21",
"=  c #263124",
"-  c #293427",
";  c #2C3628",
":  c #2C3B2B",
">  c #383829",
",  c #323632",
"<  c #41261B",
"1  c #452A1C",
"2  c #4A2D1E",
"3  c #48351C",
"4  c #482F20",
"5  c #443323",
"6  c #4D3221",
"7  c #433C2B",
"8  c #4C3B2A",
"9  c #533422",
"0  c #593B26",
"q  c #5D3B25",
"w  c #413B30",
"e  c #623E26",
"r  c #1B4D01",
"t  c #215502",
"y  c #255A02",
"u  c #295E02",
"i  c #295D0A",
"p  c #384919",
"a  c #2D6304",
"s  c #2E6309",
"d  c #316606",
"f  c #346C05",
"g  c #31660A",
"h  c #356C0A",
"j  c #396B0A",
"k  c #386E0C",
"l  c #377006",
"z  c #397207",
"x  c #3E7807",
"c  c #37700A",
"v  c #3C730C",
"b  c #3F780C",
"n  c #396A14",
"m  c #3D7410",
"M  c #3F7811",
"N  c #38412F",
"B  c #3C4633",
"V  c #48491E",
"C  c #40770D",
"Z  c #427A0D",
"A  c #456912",
"S  c #417711",
"D  c #447B11",
"F  c #487E14",
"G  c #487B1B",
"H  c #40412C",
"J  c #55462C",
"K  c #474835",
"L  c #534835",
"P  c #4C5734",
"I  c #55553B",
"U  c #654127",
"Y  c #6A4529",
"T  c #6E492C",
"R  c #744C2C",
"E  c #784E2D",
"W  c #7A502F",
"Q  c #634D32",
"!  c #6D4D32",
"~  c #754F30",
"^  c #66553A",
"/  c #755234",
"(  c #7C5432",
")  c #78573A",
"_  c #7D5B3B",
"`  c #4D692A",
"'  c #4D7625",
"]  c #557C28",
"[  c #667B27",
"{  c #766B31",
"}  c #4B4946",
"|  c #554F48",
" . c #4E5647",
".. c #595647",
"X. c #585853",
"o. c #685E42",
"O. c #715F42",
"+. c #57654B",
"@. c #587142",
"#. c #70664B",
"$. c #786648",
"%. c #706F6C",
"&. c #805634",
"*. c #825936",
"=. c #845D3A",
"-. c #885F3B",
";. c #84613C",
":. c #8A623D",
">. c #856543",
",. c #8D6541",
"<. c #876846",
"1. c #8E6B45",
"2. c #8C6E4C",
"3. c #916A45",
"4. c #946E49",
"5. c #986F49",
"6. c #95714C",
"7. c #99724D",
"8. c #8D7654",
"9. c #9C7650",
"0. c #957853",
"q. c #9D7A52",
"w. c #A27D55",
"e. c #A27E58",
"r. c #46800E",
"t. c #49830E",
"y. c #478012",
"u. c #4B8313",
"i. c #4F8814",
"p. c #4D8419",
"a. c #4F8818",
"s. c #518B16",
"d. c #508719",
"f. c #528B1A",
"g. c #569117",
"h. c #57911B",
"j. c #59931D",
"k. c #578A26",
"l. c #5B9422",
"z. c #5E9821",
"x. c #689936",
"c. c #68A22B",
"v. c #728B4F",
"b. c #6D9942",
"n. c #729C49",
"m. c #78A44B",
"M. c #7BA354",
"N. c #7C8575",
"B. c #9C835E",
"V. c #A58057",
"C. c #A58159",
"Z. c #83AA5E",
"A. c #88B05F",
"S. c #999466",
"D. c #A78967",
"F. c #AD8C63",
"G. c #B18F65",
"H. c #AB9069",
"J. c #B4946B",
"K. c #B59E77",
"L. c #BB9C72",
"P. c #89AD66",
"I. c #89AE66",
"U. c #8DB269",
"Y. c #92B56C",
"T. c #94B573",
"R. c #97B975",
"E. c #99BB75",
"W. c #9CB77E",
"Q. c #9CBC7C",
"!. c #AEA472",
"~. c #B8A578",
"^. c #C3A77C",
"/. c #9FC07E",
"(. c #898A89",
"). c #9EBC81",
"_. c #A1BE83",
"`. c #B3B390",
"'. c #BCB5A5",
"]. c #C7AD82",
"[. c #CBB78A",
"{. c #CBBA9C",
"}. c #D7BE91",
"|. c #C4BCB0",
" X c #A4C284",
".X c #A8C58A",
"XX c #A9C68C",
"oX c #ACC692",
"OX c #AEC992",
"+X c #B0CA96",
"@X c #B3CD9A",
"#X c #B9CFA2",
"$X c #BCD3A4",
"%X c #BFD4A8",
"&X c #DAC395",
"*X c #D8C9AF",
"=X c #C1D6AC",
"-X c #C4D8AF",
";X c #C8DAB5",
":X c #DBD8D6",
">X c #D4E2C5",
",X c #DAE6CC",
"<X c #DCE8CF",
"1X c #DEE9D1",
"2X c #E0EBD6",
"3X c #E6EEDD",
"4X c #E4E5E2",
"5X c #EEF3E7",
"6X c #F2F5ED",
"7X c #F4F6F0",
"8X c #F6F9F3",
"9X c #F8FAF5",
"0X c #FFFFFE",
/* pixels */
"0X0X0X0X0X0X0X0X0X0X0X0X0X0X0X0X0X0X0X0X0X0X0X0X0X:X:X2.>.>.7.K.{.*X%.:X0X0X0X0X0X0X0X0X0X0X0X0X0X0X0X0X0X0X0X0X0X0X0X0X",
"0X0X0X8X<X,X,X5X2X1X>X<X2X2X2X>X>X-X>X>X3X8X9X6X|.D.,.=.*.-.w.C.G.^.*X'.4X7X8X9X6X6X8X8X8X0X8X6X9X6X7X9X+X3X2X9X0X0X0X0X",
"0X0X0X+X_._.=Xn.I.x.x.n.M.m.Y.T. XQ.-X$X+XW.v.v.2.w.w.9.w.w.w.w.w.V.J.[.'.%X%X.XXX_.OX%X;X>X-X X/.P.I.+XG x.P.<X>X6X0X0X",
"0X0X5Xc.m D G k Z v s v v v Z v Z v r.u.z A V 5.w.w.F.J.e.e.F.w.V.q.7.C.S.k.G D D F m m F a.u.b s.u.S u.v a.t.x.D Z.3X0X",
"0X0X3Xk.v C Z u.d Z v Z F Z Z v b Z y z s.% 3.V.w.w.].}.L.L.[.J.q.:.-.w.G.] v f.c s h a.h a v u v v b F v a.r.h z M.>X0X",
"0X0X@Xj.b a.u.u.C s r.t.D Z Z v F a b h P J 6.6.w.w.L.}.&X&X&X[.w.-.&.,.:.=.S m i.g h c Z M h Z v y m Z g v Z u.p.b.-X0X",
"0X0X%Xj v Z i.Z u D y.z.f.v Z D C h Z d $ ;.;.>.,.:.,.J.}.&X}.L.V.6.E E W W A Z D y.v b h v c y v v f Z D t.F a Z k.%X0X",
"0X0XXXh.v v Z t.p.u D c j.z y.a.C p.y.G % 2.=.&.E E E -.G.L.J.w.7.-.Y 0 U E R u.v i.b D u.v D Z F x v s Z v t.z i x.%X0X",
"0X0X9Xf s.z Z b y.v v c Z f.a.v v g C | $.B._ R =.*.R E *.-.=.! / 9 q 9 1 9 e h.c F z g.F d h p.Z f D Z v t.v s.u.v ;X0X",
"0X8X$Xy.h M Z Z y.v v Z u.Z c Z Z k h > ~.K.4.R E E e Y 9 9 e 2 2 # 1 2 < < e j j b D b v Z z v h r.Z j u.Z j.Z v Z Y.0X",
"0X6XT.z a c r.f u.D f.u.v h C u.F v p.w ~.~.7.R R T Y R 2 < 6 < < 2 9 9 9 < ! [ p g s.t.v d S v D c Z h j Z u.s.a S Q.0X",
"0X8XE.s v s v f h u.y.z Z C h v Z Z v K !.~.2.R E Y ,.( 2 # < < < < 1 9 R Y :.[ % k Z j v t.h C b r.v k u.a.s.z z m I.0X",
"0X9XE.z y k a u.i m v u.a.j k Z s.j u.v I ~.4.R E Y D.=.< # < # # # 6 R ;.7.:.[ N i.v h h a f v v D Z u.v u.Z v s C P.0X",
"0X0XQ.s.C p.h Z r.y.v z v h u.v D v D j > K.7.~ E Y >.T 1 < < < # # 2 R :.3.{ V Z a h r.F v r.u.v g v Z Z z C v Z s.U.0X",
"0X0XE.a a.z s a u.s v z v F M v a.F u.m $ B.4.R Y R e 6 < 1 6 Y 2 2 2 / C.:.` V v s u.t h p.Z F h a d.z u.Z t.Z d.C E.0X",
"0X9XE.v Z v D Z D D h Z v k k v h v s h + ) / e ~ ,.&.~ 9 Y W ,.( ( ;.F.J.:.% f r.m v y v h v v C F g v h v F v u.v  X0X",
"0X8XQ.z i.l g.Z a j.h u.Z F h h s g k u.+ R R / q.1.W 4.( E E *.w.7.7.e.3.W $ z Z Z i.C m h g h.D v Z f u.a d h.Z Z T.0X",
"0X8XOXu.Z v r.v v C v C a.D S p.v z g v H T 9.7.=.~ W :.( Y U W >.,.=.7.3.&.+ t.Z Z C Z h D v i D a M v v y.z f r.D .X0X",
"0X9X).a.Z x z j z Z a.y.Z F m D s u.j F a.7 F.5.( E E W R 9 0 U 9 Y R 3.e.:.$ C C j v C h D c f D f v y.v z Z a Z f XX0X",
"0X9XXXu.z l z d j h h h h D v z h Z f v j K / 7.*.E E E -.:.=.Y 9 U Y 6.e.5.$ Z D g g k c f D s Z z v r.D u.Z z v D R.0X",
"0X0XOXh.k C Z F v h y.v b b l s j.Z v u.v Z 5 ,.R E E / 7.w.7.=.U W *.;.7.^ P f.u.Z D s v Z k v h z.u.h z l Z Z Z b Q.0X",
"0X0X Xa.s.C i.Z Z b u.h Z Z h k v v m k s v I J E E e =.w.w.w.w.3.:.;.<.7.# Z v h v v k h f h v m D v Z v D u.r.Z k T.0X",
"0X0XT.v Z f z d Z z a.Z s l Z u.v S h.F v s S 4 *.E U 4.w.,.-.=.:.( _ 4.7.8 Z v u.m b k D f F D k a s v s f l v v h M.0X",
"0X0X_.D v F u.f Z h z v l v r d D v v h d v k 8 7.&.( F.e.q 9 9 6 9 R *.0 ..Z b S u.u.F m F D z D s D Z v Z F g.f D T.0X",
"0X0X Xt.Z m Z y y.m m F h v l h v h m s d Z S % 7.6.*.V.4.4 # # # 2 R *.6 ] h h D D v v Z v s S s y c Z v z h Z g.h n.0X",
"0X0XOXu.r Z D f v D h D t v k.v F v v k v u.v 3 9.e.7.9./ 2 # # # 6 R :.8 ` b Z S z h h F s.g D k D F Z m v z u.s.F Z.0X",
"0X0X.Xa Z h D y.v u.k D h u.y.D s.z Z v F h Z 8 3.5.w.L./ 1 # # 4 ! :.&.# a.v s m v v p.D u.z d D a.Z l.Z t.a.f p.k n.0X",
"0X0X_.f h v v a r.Z h h v Z t.Z u.Z F v Z z d # *.3.w.^.) 1 1 # 6 ,.3.:.8 a v v S v Z b u.Z u.h D u.f v Z Z s t.s Z M.0X",
"0X0XY.a u.k y.Z h f d D f v h C z h i h k h u.$ ,.,.9.e.q U e < 9 2.&.:.8 n h b h t a.v D Z v s v t v k.h p.v Z Z h  X0X",
"0X0XT.a.t a c D v z z v C Z Z Z f.v d Z b v ' $ 5.w.e.9.! Y 4 < 0 1.T :.8 n z a g Z C v v b c f.v u h Z Z v u.z Z Z P.0X",
"0X0X.XZ M f.h.t f s z Z v v b z Z u.Z Z a c F 5 w.e.^.0.0 1 < 1 T =.q :.8 m h f z v C Z b z v z v f a.d h u.u.C l f.T.0X",
"0X0X=Xm t.k z Z h u.Z h F v Z v v v z z F F v L ,.w.].0.U 1 # 1 T &.R / L C F z d Z j u.c s x c b l.h f.Z f z d h F R.0X",
"0X0XOXD Z a.Z Z Z u Z y.s m l u.D s Z v D v u.X.5 w.J.) 1 < 2 2 W 3.W < X.Z c d.M m v y.D s v b C d v b v b a t.z.u U.0X",
"0X0X.XD l a D a.f b c a.y.y.D v a v l f Z D v ] J C.2.9 < 9 e e :.5.&.5 D h a.c v M v v f u.c y a h Z y.Z f Z z u Z Y.0X",
"0X9XR.f r.t.u x v m d.h b Z v y.k D v j a.v D Z | <.>.6 1 Y E ( q.5.-.J u.a v v M i t.b D l M v f s.v v Z C u.Z g s.Z.0X",
"0X0XU.D v a z r.k g c v r.b b h Z h r.v h z S u. .0 &.6 < T R ! q.5.T t.b s D i.y.r.u.v h f D Z v s z s.Z t.s.s.z F T.0X",
"0X9XU.u.a v Z b u.C v v Z b D D Z k h C u.l Z u.C K 9 1 9 R Y 9 7.7.3 c r.i.Z Z h u.Z s Z v D z M u.l d h Z z.b k a T.0X",
"0X0XY.v s v u.h f C v u.c l Z u.s g u.u l h a.C z } O 1 Y E T R 7.! a z c c y.t.v h.s.v r.d Z a.v v v F h z v h.c j U.0X",
"0X0XOXk v g c c v Z u.F u.Z S C v h h M z D s.p.C } O 1 R -.( ( =.3 l a d y.b b u.v F k Z Z C z k y.Z d u.a.r.t.v v P.0X",
"0X9X+Xh D u.a v v F u.v i.v h z l.d h h h k z t ` @ $ q _ =.E ( 3.J Z v h.v c a.l a.v f F j C d v z v r.v t v a h s.U.0X",
"0X0X.Xi.Z a.b s b v v b b h D v h v S F v v F v  .O q ~ ;.E E W =.0 F m u.Z v v h r.s h v v D v z v k d C h Z F f d. X0X",
"0X8X@Xb Z f c v b F M c f.v Z g D u.v p.z v z t. .O Y _ / 9 6 ~ :.3 f a.a r.v f r.F z F z z.D s Z h v C Z f f u.z f.XX0X",
"0X9X.Xu.t.r.D u.a h t Z z k h v d v v v m k u.v } + e Y 6 # # 9 &.3 Z a b f m h y.h v k k v S Z m v v Z Z t.u.f v a.+X0X",
"0X0XOXl r.z r.y.a F p.v b Z y v s v s D g h.Z C + 9 e 2 < 1 # 2 E 0 } l c c v u.Z r.r.D v Z k m v p.u.u.Z j Z Z Z F %X0X",
"0X0XOXl r.z u.u.h k t.c k v v u.g c v Z v m g ` $ / 5 1 6 U 6 2 ( 7.L C c b v h.k v D Z m D k t v z D z j Z Z F h.F @X0X",
"0X9X/.r.u.Z s h u.Z a.v a.D s u.p.y.c v b g b +.5 0 4 ! 2.6.O.9 ( w.J | t h y.F v r.k v D F m h m z p.s v u.u.z z v XX0X",
"0X9XQ.a.F F D s v z h Z k D v m h v v v y.a.i.+.# / >.J.^.^.<.R :.7.4 X.u.u.v c F k v v h v M k Z v u.g.Z h.Z t.z k.R.0X",
"0X8X.Xj.v r.p.a.h.v a F v c u.v u.g D c D c b | ^ q.C.C.e.5.&.:.w.9.q | c m b Z v v v h M m k D v a.Z Z v Z Z h Z D R.0X",
"0X9XR.u.m D v b v v u.f v v M v m c z c h h @.$ I $.$.$.2.) Q O.O.O.>.8 +.c v u.h v v Z g Z v Z v v v u.Z v F l b G .X0X",
"0X9XT.a.v z D a.s u.v u.v v g m u.m k.h i Z %.o ; : = ; K I : ; - # 5 w } p.v h m u.c a h v b u.k S D v v h v s.s p.XX0X",
"0X9XU.p.v F h a.v v s k v D g v s v h z Z G } , N - ; ; - - - ; - = > | * k.v v m g F Z v s F Z m k v D Z Z v a.Z h.OX0X",
"0X0X#Xf.Z S v v Z h m v k v F b h D z i y ..^ $.^ J L L J L I I J L o.S.$.X.h d D g c f v M s f k g m D h s.F v u.G -X0X",
"0X0X Xf.F C v s v h k D m M m m Z c c s (.* 7.*.1.-.<.;.( 1.$.1.=.;.1.H.].L ` m m k y.s v u.v s h h C a.D z Z z u.v R.0X",
"0X0X%XD u.u.s s.u D D v v v z k g.M b D K ^ <.=.6.7.7.5.3.7.&.;.1.q.;.q.`.8.P M p.f v h z t.d a F v d Z v Z z v d D p.0X",
"0X0X;Xu.u.s.Z F Z c h k z h h k M v r N.o o.o.^ 2.2.2.2.6.2.;.;._ :.( =.8.B.p v.D F C k D Z h u r.v z s v u.v u.h F P.0X",
"0X9X;Xl.Z r.f.z r.M f.f.S v v k g z a (.@ ..N N B K K P $.$.K K H N H N N o.K , k d v C S u.m t F v v a S v D k u.u.1X0X",
"0X0X>Xf.S k m F F k h Z F z f.g D k c , & N , : : : : : B B : : : : : : : } #.& D G D Z h Z M h s b h p.v u.z u.F n./.0X",
"0X0X1Xm.x.k.m.k.k.z Z i.f.b j v F s p.N.o > ^ N = = = = = = = = = = = = & & & + a.y.l.m k.F p.F v k.z.l.l.x.k.m.%XOX>X0X",
"0X0X0X,X-X-X1X-X%Xx.k.k.b.Z.A.Z.I.U.P.Q.U.%.X . . . . . . . . . .   . . | _.W.E.W.U.).$XOXoXQ.R. X_..X#X@X X%X5X5X8X9X0X",
"0X0X0X0X0X0X0X0X0X0X0X0X0X0X0X0X0X0X0X0X0X0X0X0X0X0X0X0X0X0X0X0X0X0X0X0X0X0X0X0X0X0X0X0X0X0X0X0X0X0X0X0X0X0X0X0X0X0X0X0X"
};
