/* XPM */
static char *result[] = {
/* columns rows colors chars-per-pixel */
"60 60 231 2 ",
"   c #0D0A05",
".  c #130D09",
"X  c #0D1803",
"o  c #111C04",
"O  c #13120B",
"+  c #1D120C",
"@  c #151A0B",
"#  c #1A1714",
"$  c #230E08",
"%  c #231907",
"&  c #22130C",
"*  c #2B140D",
"=  c #39180D",
"-  c #231711",
";  c #251913",
":  c #291C16",
">  c #241C19",
",  c #2C1F19",
"<  c #391B15",
"1  c #142404",
"2  c #182809",
"3  c #1A3305",
"4  c #1E2710",
"5  c #212E0E",
"6  c #23380A",
"7  c #282216",
"8  c #2E211B",
"9  c #3B2216",
"0  c #31231D",
"q  c #352622",
"w  c #342826",
"e  c #362A26",
"r  c #3A2B24",
"t  c #3D2E2B",
"y  c #431B0E",
"u  c #491E0F",
"i  c #461E14",
"p  c #501E18",
"a  c #442213",
"s  c #4B2314",
"d  c #43251B",
"f  c #4D291A",
"g  c #532517",
"h  c #542C1B",
"j  c #592E1D",
"k  c #5B301E",
"l  c #632B1B",
"z  c #482D25",
"x  c #582820",
"c  c #43322D",
"v  c #553223",
"b  c #5D3422",
"n  c #5B382B",
"m  c #463533",
"M  c #4A3935",
"N  c #4E3C39",
"B  c #563C33",
"V  c #523F3C",
"C  c #652B22",
"Z  c #6B2D25",
"A  c #6D2F28",
"S  c #623622",
"D  c #683827",
"F  c #6B3E2B",
"G  c #71342C",
"H  c #75382E",
"J  c #623E35",
"K  c #1B4D01",
"L  c #27480A",
"P  c #275606",
"I  c #255A03",
"U  c #295E03",
"Y  c #2C520A",
"T  c #325C0C",
"R  c #315013",
"E  c #2D6304",
"W  c #2E630A",
"Q  c #316605",
"!  c #346C05",
"~  c #32650B",
"^  c #39660C",
"/  c #356C0A",
"(  c #396E0C",
")  c #397207",
"_  c #3A7309",
"`  c #3C730C",
"'  c #3A6A11",
"]  c #3E7410",
"[  c #3F7811",
"{  c #40770D",
"}  c #427B0D",
"|  c #417612",
" . c #447B11",
".. c #497E18",
"X. c #464832",
"o. c #55423E",
"O. c #59473F",
"+. c #66412F",
"@. c #6D412D",
"#. c #71442E",
"$. c #6C4537",
"%. c #744531",
"&. c #754834",
"*. c #7A4A35",
"=. c #7D4A37",
"-. c #7D503B",
";. c #533F41",
":. c #564441",
">. c #594744",
",. c #5C4943",
"<. c #565755",
"1. c #624B44",
"2. c #614E49",
"3. c #65514B",
"4. c #685549",
"5. c #6A554C",
"6. c #785646",
"7. c #6D5851",
"8. c #735C53",
"9. c #7A6357",
"0. c #657253",
"q. c #777674",
"w. c #89452D",
"e. c #874836",
"r. c #83533D",
"t. c #8B4D43",
"y. c #855642",
"u. c #8A5543",
"i. c #8B5B44",
"p. c #895C48",
"a. c #925547",
"s. c #935D4C",
"d. c #936147",
"f. c #94624D",
"g. c #9A664F",
"h. c #836B5C",
"j. c #9A6751",
"k. c #9D6B54",
"l. c #9D6E59",
"z. c #89705C",
"x. c #A26D56",
"c. c #A26F59",
"v. c #A6735C",
"b. c #A9755D",
"n. c #866E60",
"m. c #8D7463",
"M. c #937864",
"N. c #AA7660",
"B. c #AD7A62",
"V. c #B37E66",
"C. c #B57E68",
"Z. c #46800D",
"A. c #49830F",
"S. c #478012",
"D. c #4B8313",
"F. c #4F8814",
"G. c #4D851A",
"H. c #518C16",
"J. c #508719",
"K. c #528B1A",
"L. c #57901B",
"P. c #58921B",
"I. c #578A26",
"U. c #5B9422",
"Y. c #5E9821",
"T. c #61942E",
"R. c #689936",
"E. c #68A22B",
"W. c #709B49",
"Q. c #729C49",
"!. c #78A44B",
"~. c #7BA357",
"^. c #83AA5D",
"/. c #88B05F",
"(. c #839D6B",
"). c #B6816A",
"_. c #BA856D",
"`. c #BF8A6E",
"'. c #BF8370",
"]. c #BE8A71",
"[. c #88AD65",
"{. c #8DB267",
"}. c #91B56C",
"|. c #8EA479",
" X c #94B573",
".X c #97B974",
"XX c #99BB75",
"oX c #9CBC7C",
"OX c #C38C75",
"+X c #C88D78",
"@X c #C69078",
"#X c #CB947C",
"$X c #9FC07E",
"%X c #AA9A99",
"&X c #AA9E9E",
"*X c #9FBD82",
"=X c #A1BE83",
"-X c #B6A29E",
";X c #CF9980",
":X c #D09780",
">X c #D59B84",
",X c #D7A187",
"<X c #D7A189",
"1X c #DCA58C",
"2X c #DFA88F",
"3X c #D5A995",
"4X c #E1AA91",
"5X c #E2AB92",
"6X c #C6BAB9",
"7X c #A4C385",
"8X c #A9C68B",
"9X c #ACC592",
"0X c #AEC992",
"qX c #B2CC98",
"wX c #B9CFA2",
"eX c #BCD3A5",
"rX c #C2D6AD",
"tX c #C9DBB5",
"yX c #D4D0D0",
"uX c #D9D9D8",
"iX c #D4E2C5",
"pX c #DAE7CD",
"aX c #DEE9D1",
"sX c #E2ECD9",
"dX c #E9E9E8",
"fX c #EEF3E7",
"gX c #F2F6ED",
"hX c #F3F4F1",
"jX c #F6F9F3",
"kX c #F8FAF5",
"lX c #FFFFFE",
/* pixels */
"lXlXlXlXlXlXlXlXlXlXlXlXlXlXlXlXlXlXlXlXlXlXlXlXlXlXdXdXdXuXuXuXuXuXuXdXhXlXlXlXlXlXlXlXlXlXlXlXlXlXlXlXlXlXlXlXlXlXlXlX",
"lXlXlXkXpXpXpXfXsXaXiXpXsXsXsXiXiXrXiXiXfXkXdXyXuXuX<.# O # > > # # 7 # q.yXyXhXhXgXkXjXkXlXkXgXkXgXjXkX0XsXsXkXlXlXlXlX",
"lXlXlX0X=X=XrXW.[.R.T.Q.!.~.}..X7XoXrXwX0X(.X.O O # e > - t 7.7.c N 4.,.X.# # 0.|.oX9XeXtXiXtX7X$X[.[.0X..R.[.pXiXgXlXlX",
"lXlXfXE.]  ...( } { W ` _ ` } ) } { } ' 3 O 7 m M N :.w q > 8 t ; 8 V :.3.2.3.e # R ] [  .J.A.` K.D.{ D.` F.A.R.| [.sXlX",
"lXlXdXI.` { } D.Q } ` { D.{ A.` } ` 3 O # V 5.>.>.3.5.3.o.c r 0 % + 8 m :.>.>.>.>.w L ' / E ` E ` ` {  .` F.S./ ) ~.tXlX",
"lXlXqXP.` J.D.F.[ W A.A. .` } _ ' 3 # w :.,.2.1.3.z.M.M.9.m.m.4.M c 8 , t o.8.3.8.:.# O Y | ! { _ U ] } ~ ]  .D.G.W.tXlX",
"lXlXeX) [ { F.{ U  .S.Y.L._ [ Y 1 w :.>.>.3.h.9.h.h.9.z.M.M.M.h.M.M.4.c , r 9.h.3.:.t m > L _ I _ ` / }  .A. .E  .I.eXlX",
"lXlX8XP._ ` { D.G.U  .( L._ L @ w ,.:.,.8.h.M.M.h.M z X.8.8.8.>.1.M.9.5.O.0 r 5.9.9.,.7.N O Y  . ._ ` Q { ` A.) U R.eXlX",
"lXlXkX! H.) [ [ A.) _ )  .H.@ 8 c >.9.9.h.7.7.7.1.c r 8 0 t o.0 0 >.c :.2.4.9 8 ,.8.2.5.;.O X G.S.!  .{ `  .} H.D.` iXlX",
"lXjXeXA./ ] [ } A.` _  .D.6 # m 0 9.M.m.n.9.5.:.c q q , ; ; 0 ; : e t c m V c ; 0 q N ;.N > X L _ S.{ ( D.} P.{ `  .}.lX",
"lXgX X) E ) A.! D. .K.D._ X w V o.M.n.7.5.7.2.:.M c 0 ; ; ; ; ; ; : 0 , , , c q ; ; m t N c + 1  .) } / ( } D.K.E | XXlX",
"lXkX.XE ] W _ ! ! D.S.( _ @ m <.9.M.m.7.o.;.t 0 q q t 8 ; ; ; ; ; ; ; ; ; ; c r ; ; , , V V + o { Z.` / D.F.H.) ) ] [.lX",
"lXkXXX) P ] E D.P [ _ F.D.@ m 9.,.r 0 0 8 0 , - ; ; 7 : ; ; ; ; ; ; ; ; ; ; , : ; ; ; ; r M & @ `  . .D.) D.{ ` E { [.lX",
"lXlXoXH.` D.) ` S.S.` _ 2 O o.:.8 ; ; 7 ; ; ; ; ; ; ; ; ; ; ; ; ; > ; ; ; ; ; ; ; ; * ; , m & 1 ` / _ }  .) { ) } K.}.lX",
"lXlXXXE H.) W E D.W _ _ o e :.m : ; ; ; ; ; ; & ; ; - - - - ; ; ; & - - ; ; : , , , > ; ; , + 4 ~ E H.) D.} Z.} K.` XXlX",
"lXkX.X`  .` { S. . ./ } o t :.8 ; ; : : - & & + + + + + + + + + + + $ + + & q M M m q , 7 8 >.,.5 ..~ ` / ` D.` D.` 7XlX",
"lXjXoX` F.) H.{ E U./ D.o c M : ; ; 0 q & * u u s s s s s s s s s y y u a u = + & & t o.N V 2.3.2 _ } ! D.E Q L.A.{  XlX",
"lXjX0XD.} { Z.` ` ` ` [ @ e , ; ; & * * u #.g.OX1X1X,X,X1X,X,X1X#Xg.g.g.g.g.F s g u * t :.:.2.3.2 E [ ` ( A.) ! }  .7XlX",
"lXkX=XD.} _ ( ) ) } G.S.o + > > , & = %.OX#Xb._.#X1X2X2X4X2X2X2X>Xx.k.k.k.v.b.@X2X_.s & c m ,.>.4 / ` A.] ` } E S.! 8XlX",
"lXkX8XD.) ) ` Q ) / ! ( o + - , e = %.2X5X1XOXV.).#X2X2X2X2X2X2X#Xk.k.v.).@X2X2X4X1Xh + > : m t 2 ) ` Z.[ D.} ) )  ..XlX",
"lXlX0XP.( {  .} _ / S.` X + - - & p B.5X4X4X1X1X,X2X2X2X2X2X2X2X,X).B.OX2X1X2X2X2X#X@.* & ; , 8 1 U.G./ ` ) } } }  .oXlX",
"lXlX7XF.H.{ D.Z. .{ D./ o + - - $ u b.#X1X2X1X4X2X2X2X2X2X2X2X2X1X1X1X1X2X2X2X2X1X).g.u & ; ; O 1 .._ { ` { D.A.{ _  XlX",
"lXlX X] } / ) E A.! F.} X O - - + a g.C.1X4X4X1X2X2X2X2X2X2X2X2X4X2X2X2X2X2X2X2X,XV.g.y & ; ; + 1 E W ] W ! ) _ ` / ~.lX",
"lXlX*X .) D.D.! } ( / ` o + ; - + a g._.1X4X4X4X2X2X2X2X2X2X2X2X1X1X4X2X4X4X4X4X2XV.g.y + & ; + 4 / { [ [ {  .H.) {  XlX",
"lXlX7X .D.| } P D.] ] ..o + ; - & a v.@Xl.p.y.p.p.N.>X2X2X2X2X2X,X).v.p.p.p.p.].2XC.f.a + - > + o I )  .] ) / Z.P./ W.lX",
"lXlX8XF.K ` [ ! )  .~  .@ O - & = -.j.-.n v v v v F 6.v.).,X2X,Xv.&.+.v v v v $.y.f.k.*.= & , 8 2 [  .S.( [ ) S.H. .^.lX",
"lXlX7XE } / S.A.` F.( | Y @ + & y k.y.v 6.].v.i.F v v F d.B.).x.D v v n J n b v v +.f.j.y + 0 t 2 G.[ Y.} A.F.! G.) !.lX",
"lXlX=X) ! _ ` E } } ( ! / @ + - a g.g.k.;X5X1X>Xv.@.b k F d.x.r.S v b &.v.OXv.p.i.i.j.f.y + 0 t 4 ' 3 _ } { W D.W { ~.lX",
"lXlX X! G._ D. .( / 3 X X . + = r.k.k.c.OX@Xc.N.l.F j j b i.f.D k j F f.x.b.v.k.f.f.k.f.y + ; ; $ . 2 I.! F.) { { / 8XlX",
"lXlX}.J.K E ) [ _ ) 1 < y & + y x.x.g.d.s.$.9 < d 9 f j j =.C.G j f 9 9 i J j.s.#.b i.g.a & & & y p & L { ] F.( } { ^.lX",
"lXlX7X{ [ H.K.I ! E 1 j w.= + u OXc.i.b z d 9 d < < i h A OX+XG j 9 < z d d z f s k i.k.r.y & = C A < 2 / D.D.` ! K..XlX",
"lXlXrX] D.( ) } ) D.2 j w.y & a #X).v.f.f.s.p.y.v 9 f j G #X+XH C f z y.y.y.y.@.@.f.b.x.f.= $ u Z Z < L { Q ` ! ! G..XlX",
"lXlX9X .[ F.Z.[ Z.U 2 j w.y + y @X2X#X).B.i.b v d b +.+.A +X+XA Z S S z z D *.g.@X4X1XN.s.= + y Z A < 3 ` { E A.Y.I {.lX",
"lXlX8X .! Q  .J.! ` 1 j w.s $ g v.2X2X1X1X@XN.v.N.N.k.d.G +X#Xt.Z %.x.b.N.].<X1X2X4X1XN.s.= + y Z C , R  .) } _ E } }.lX",
"lXkX.X! Z.A.E _ _ _ 2 9 w.w.k d.v.#X1X2X2X1X2X2X2X2XOXx.a.+X>X'.%.f.C.2X2X1X2X4X2X2X<XB.d.u $ u Z < 3 { } { D.} Q H.^.lX",
"lXlX{. .) Q _ Z.( / L 1 D w.e.g.k.b.1X2X2X2X2X2X2X2X1XV.+X:X>X'.G a.@X1X2X2X2X1X1X2X3XN.f.l g Z A i 4 K.}  .H.F.) .. XlX",
"lXkX{.D.U ] Z._ } { { 1 S w.w.s.k.B.1X2X2X1X4X4X2X#X].).#X>X>X+Xt.e.:X2X1X1X2X2X2X1X@Xv.f.F S A x 7 Y Q ! } P.} ( E .XlX",
"lXlX}.` ~ _ D./ ) { { 2 9 w.w.e.j.b.@X1X4X1X4X;Xv.r.v.:X>X>X>X>X+Xs.s.:X4X4X2X1X1XOXb.k.g.S A Z < 2 {  ./ ` ` P.) / [.lX",
"lXlX0X( ( ~ _ ( { } ..T 2 h w.e.f.k.v.@X4X4X;Xd.k f b.1X>X>X>X>X>X:Xs.s.:X5X4X:X_.v.j.k.*.D C p % ^ } E D.J.Z.D._ ] [.lX",
"lXkXqX!  .D.E _ ` } ..! { % S w.*.f.j.v.).).d.k j j e.a.a.a.a.a.a.a.e.A u.C.C.N.j.*.#.s.D g * + T / ] A.` I { E ~ H.{.lX",
"lXkX7XF.} F.` Q { ` ` [ { Y 7 G r.@.@.F F @.D k &.y.t.G Z Z Z Z Z A H u.*.F y.k.e.b k @.f , R U ` ` ( Q { / {  .! J.7XlX",
"lXkXqX[ S.! ( ` }  .] ) H.` ^ 9 &.b j j j j k %.f.OX;Xk.A k j b D u.s.k.r.j S #.S k b &.7 |  .~  ./ _ { { ! ! D.( K.8XlX",
"lXkX8XA.A.Z. .D.E ( I } _ ) ) T ; h j v j k k S u.#X4X>X].i.D i.d.k.k.u.S k j k j j S y.# ^ | } ] _ _ } } D.D.! ` F.qXlX",
"lXlX0X/ Z.) S.S.E  ...` ` [ P ( @ s j j k S k k r.x.l.l.l.f.u.s.f.d.f.-.k k S b j j b &.7 | / { _ G.D.D.} ) { } }  .eXlX",
"lXlX0X) D.) D.D.( _ D.) ( ] [ S.Y + h b &.g.*.j b n B z n J J J +.B z z d *.f.*.k j h ; T  ./ P { ) | ) ) } }  .P...qXlX",
"lXkX7X} F.} E ~ S.{ F.` F. .W D.] . f #.j.k.=.S n :.%X6X6X6X6X6X6X%X;.N 6.x.x.f.@.k f O ( G.( ! { ) G.W ` D.D.) ) | 8XlX",
"lXkXXXJ.S. . .W ] _ / { _ { ) ] W X & @.j.j.j.f.e.1.&X6XyXyXyXuX6X7.J t.V._.d.#.k j 9 4 W [  ./ ` ` D.P. .L.} A.) I..XlX",
"lXjX8XU._ } F.J.L.] E  .{ / D.[ S.P . f %.s.k.j.j.j.N.8.-X6X6X6X-Xl.f.j.v.k.*.k k f O T { ] (  .{ G.} } ` } } / {  ..XlX",
"lXkX.XD.[ ] { { _ ` D.! ` [ ] ] ] W o + f *.k.k.k.k.i.u.s.s.s.s.s.l.k.l.k.s.#.j j 9 5 ^ ~ { ` } [ _ _ G.} (  .` ] G.7XlX",
"lXkX XF.) _  .F.W D.` D.) _ ! ` D._ ..o * *.k.k.k.k.*.Z C C C C e.j.x.k.j.&.j j h + U Q ~ { ` D.(  . ._ [ ! { H.E G.8XlX",
"lXkX{.D.`  .( D._ ] W ( ]  .W ` W ` ^ Y . b d.k.k.k.g.*.F #.@.*.f.k.k.k.k.*.j j < 5 | { [ W D.{ _ ] (  .{  .( D.{ U.0XlX",
"lXlXwXI.{  .` ] } / ] ` ( _ ..[ /  ._ P 1 @ @.x.k.V.`.`._._._._.].].C.k.k.r.k g . Y ( / ` ` W ! ( ~ [ { ( H.} } F...rXlX",
"lXkX7XK.S. .] W ] ) ( ] ] ] ] ] } / / ~ U 3 : r.c.#X5X2X4X4X4X4X4X1X_.k.i.@.j = 3 ~ ..U ` F.` W ) ! { F. ._ } _ S._ .XlX",
"lXlXrX .F. .W H.U [  .] ` ` ) ( P.| { { ! U 3 9 d.).,X5X4X4X4X1X].V.k.s.@.j < 6 ..! { / ( Z.Q E  .` ~ } ` } ) ` !  ...lX",
"lXlXtXS.D.H.[  .{ _ / ( ) / ' _ { ` K ! ~ { 3   f %.c.).).V.C.v.&.@.%.D s $ 3 ]  .D.{ (  .} / U  ._ ) W ` D._ D./  .[.lX",
"lXlXtXU.} A.H.` A.[ H.K.| _ _ ( ~ ) I ` D.( ~ 2 . & b %.%.@.%.F k j j u $   L K.( Q ` { | D.( I S.] ` E | `  .( F.D.aXlX",
"lXlXiXK.{ ( ]  .../ / } } ` K.~  .] ( ] } { ..' ^ 1 $ a f f f h f 9 + . 5 ~ ^ Q }  . . ./  .| / W [ / G._ F.)  . .!.oXlX",
"lXlXpX!.R.I.!.I.I.) { F.K.` ) ` S.W F.~ K.D._  .P.E 1 . O O + . . 5 P P ( F.( ` H.D.U.] I. .J. ._ I.Y.T.U.R.T.W.rX0XiXlX",
"lXlXlXpXrXtXpXtXeXR.U.I.W.^./.^./.}.^.XX^.}.^.}.!.!.!.{.[.Q.~.[.{.[..X~.~.}.}.XX.X}.=XwX0X9XoXXX7X7X7XwXqX7XeXfXfXjXkXlX",
"lXlXlXlXlXlXlXlXlXlXlXlXlXlXlXlXlXlXlXlXlXlXlXlXlXlXlXlXlXlXlXlXlXlXlXlXlXlXlXlXlXlXlXlXlXlXlXlXlXlXlXlXlXlXlXlXlXlXlXlX"
};
