/* XPM */
static char *result[] = {
/* columns rows colors chars-per-pixel */
"60 60 224 2 ",
"   c #19050A",
".  c #0B1702",
"X  c #17170D",
"o  c #171513",
"O  c #1A1615",
"+  c #1C1917",
"@  c #1E1A19",
"#  c #2E080D",
"$  c #27150B",
"%  c #381B0D",
"&  c #241914",
"*  c #2A1A13",
"=  c #211D1B",
"-  c #321D14",
";  c #3C1D10",
":  c #162806",
">  c #1B3306",
",  c #1F2F10",
"<  c #253707",
"1  c #272317",
"2  c #25201D",
"3  c #392116",
"4  c #38241A",
"5  c #3C251B",
"6  c #323913",
"7  c #2C2421",
"8  c #2C2B29",
"9  c #332924",
"0  c #3A2C25",
"q  c #31352B",
"w  c #420114",
"e  c #492F0B",
"r  c #462314",
"t  c #492515",
"y  c #46281B",
"u  c #4E291A",
"i  c #532D1C",
"p  c #5C2F1B",
"a  c #58301E",
"s  c #67331D",
"d  c #793017",
"f  c #432E24",
"g  c #473225",
"h  c #43332B",
"j  c #4A332A",
"k  c #563323",
"l  c #5C3321",
"z  c #583B2E",
"x  c #4B3B32",
"c  c #573E33",
"v  c #613623",
"b  c #6B3621",
"n  c #643926",
"m  c #6D3A24",
"M  c #653C2A",
"N  c #6C3D29",
"B  c #703B25",
"V  c #733E29",
"C  c #633E32",
"Z  c #1C4B01",
"A  c #274909",
"S  c #255A03",
"D  c #295E02",
"F  c #295608",
"G  c #32590B",
"H  c #324716",
"J  c #2D6304",
"K  c #2E6409",
"L  c #316605",
"P  c #346C05",
"I  c #386F07",
"U  c #31660B",
"Y  c #356C0A",
"T  c #396F0C",
"R  c #377006",
"E  c #397207",
"W  c #3E7807",
"Q  c #37700A",
"!  c #3C730C",
"~  c #3F780B",
"^  c #386D11",
"/  c #3D7410",
"(  c #3F7811",
")  c #545317",
"_  c #694913",
"`  c #40770D",
"'  c #427A0D",
"]  c #446B17",
"[  c #526A12",
"{  c #417711",
"}  c #447B11",
"|  c #487E13",
" . c #4A7B1A",
".. c #6A6E1D",
"X. c #545827",
"o. c #5D4336",
"O. c #6D412E",
"+. c #73422D",
"@. c #78442A",
"#. c #665C2C",
"$. c #684534",
"%. c #6B4B3C",
"&. c #754631",
"*. c #734936",
"=. c #7C4B34",
"-. c #7A4C37",
";. c #4C7C29",
":. c #6D7328",
">. c #69544D",
",. c #765342",
"<. c #7C7852",
"1. c #973336",
"2. c #834E35",
"3. c #834C3A",
"4. c #85523A",
"5. c #8B553D",
"6. c #8F583F",
"7. c #945B36",
"8. c #CA5B3C",
"9. c #845642",
"0. c #8D5A42",
"q. c #8F504D",
"w. c #845C4B",
"e. c #935C42",
"r. c #955D46",
"t. c #B04247",
"y. c #996147",
"u. c #98644B",
"i. c #9B644A",
"p. c #866258",
"a. c #956A55",
"s. c #9B6A53",
"d. c #A1694E",
"f. c #B6634E",
"g. c #A46C51",
"h. c #A86F53",
"j. c #AA7155",
"k. c #AA765B",
"l. c #AD7559",
"z. c #B27A5D",
"x. c #896F63",
"c. c #95736B",
"v. c #987C75",
"b. c #AA7C64",
"n. c #B67E61",
"m. c #46800E",
"M. c #49820F",
"N. c #478012",
"B. c #4B8413",
"V. c #4F8814",
"C. c #4D8519",
"Z. c #518C16",
"A. c #54871B",
"S. c #538C1A",
"D. c #57911B",
"F. c #58921B",
"G. c #578A25",
"H. c #5B9322",
"J. c #5E9821",
"K. c #619629",
"L. c #689936",
"P. c #6E9944",
"I. c #729C49",
"U. c #789552",
"Y. c #78A44B",
"T. c #7BA357",
"R. c #999048",
"E. c #81A55E",
"W. c #83AA5D",
"Q. c #88B05F",
"!. c #BB8365",
"~. c #BA8569",
"^. c #BE8669",
"/. c #87AC64",
"(. c #89AE65",
"). c #8CB266",
"_. c #8FB26B",
"`. c #91B56C",
"'. c #94B573",
"]. c #97BA74",
"[. c #99BB75",
"{. c #9CBC7C",
"}. c #C38B6C",
"|. c #C88E6F",
" X c #C88F70",
".X c #CD9474",
"XX c #D09777",
"oX c #D29979",
"OX c #9FC07E",
"+X c #A59088",
"@X c #9EBC81",
"#X c #A1BE83",
"$X c #B8B1AE",
"%X c #C3BAB7",
"&X c #A4C285",
"*X c #A7C489",
"=X c #A9C68C",
"-X c #AAC78C",
";X c #ACC692",
":X c #AEC992",
">X c #B0CB96",
",X c #B3CD9A",
"<X c #B9CFA2",
"1X c #BCD3A4",
"2X c #BFD4A8",
"3X c #C1D6AC",
"4X c #C4D8AF",
"5X c #C8DAB5",
"6X c #CFC9C8",
"7X c #D4D1CF",
"8X c #D4E2C5",
"9X c #DAE6CC",
"0X c #DCE8CF",
"qX c #DEE9D1",
"wX c #E1ECD6",
"eX c #E6EEDD",
"rX c #E2E1E1",
"tX c #EBECEC",
"yX c #EEF3E7",
"uX c #F2F6ED",
"iX c #F4F6F0",
"pX c #F6F9F3",
"aX c #F9FAF5",
"sX c #FFFFFE",
/* pixels */
"sXsXsXsXsXsXsXsXsXsXsXsXsXsXsXsXsXsXsXsXsXsXsXsXsXsXsXsXsXsXsXsXsXsXsXsXsXsXsXsXsXsXsXsXsXsXsXsXsXsXsXsXsXsXsXsXsXsXsXsX",
"sXsXsXpX9X9X9XyXwX9X8X0XwXwXwX8X8X4X8X8XyXiXaXpXsXpXpXaXsXaXaXaXiXiXaXaXaXiXpXaXiXuXaXpXaXsXaXuXaXuXiXaX>XeXwXaXsXsXsXsX",
"sXsXsX:X#X@X3XP./.P.L.I.T.Y.`.].&X{.4X1X>X@X/.P.;.P./.].[.*X*X*X&X#X,X<XeX4X3X*X=X&X;X2X5X8X4X*XOX(.).>X .L./.9X8XyXsXsX",
"sXsXyXL./ |  .! ~ ~ J ! ! ! ' E ' ~ m.B.! P ' Y } B.E C.J Y C.J.B.! ~ N.P.G.} } } } / / } C.B.~ Z.| / B.~ Z.M.L. .W.eXsX",
"sXsXyXG.! ` ' B.L { ! ' | ' ' ~ ! ' S Q S.~ Q ` B.I ! U | } F.} ' D.V.( ! ' ! S.Y J Y V.Y J ! D Q ~ ' } ! V.} Y Q T.5XsX",
"sXsX>XF.! S.B.B.~ K B.M.| ' ' ! | J ~ Y Y Y | | M.U | ^ T | ! L B.} U N.~ { ~ / V.Y Y Y ' { Y ' ! S / ' K / } B.C.P.5XsX",
"sXsX2XY ! ' V.' J ~ N.J.S.~ ~ { ` Y ' L T J V.Z A < 8 8 8 8 8 H A F V.Z.L N.! ~ } } Q } Y ! ! S ! ! Y ' } M.} J } G.2XsX",
"sXsX=XF.! ! ' M.C.J { Y F.Q N.C.` C.N.~ ' > . O O @ + = + + 2 2 @ 2 q G B.P ! B.~ S.~ { B.! / m.| W ! L ' Q m.~ D L.2XsX",
"sXsXaXP Z.Q ' ' m.! ~ Y ' S.B.! ~ U ~ > X = O @ @ + = @ + + = 9 h 7 + @ q Y ^ S.! ' ! S.| L U V.{ P } ' W ' ~ Z.C.! 5XsX",
"sXiX1XB.Y ( ' ' N.! ! ' B.' ! } ' K . @ @ @ @ O + + + + + + O + @ 9 0 @ @ q G T ' ' ' ! Q ' ! ! T m.` T | ' F.{ ! ' `.sX",
"sXuX'.Q J Q m.P B.{ S.N.! Q ' } A o + + + + @ @ + @ + @ + + @ + + + 7 = @ = = F ! Y Z.M.! P ` ` { Q ' Y T ' B.Z.J { {.sX",
"sXaX].J ! K ! P Y B.N.! ` ' Y F O @ 1 @ + + @ @ O @ @ O + + + + + + + @ 8 2 + = > ! ' T ! M.Y ! ' ' ~ Y C.V.Z.E Q / (.sX",
"sXaX].! F Q J B.S ( T B.V.Q Y X + + @ @ @ = = 7 2 7 @ @ + @ @ + + + + @ @ @ @ O @ 1 Q Y Y J P ! ! } ' B.! B.' ! J ' /.sX",
"sXsX{.V.~ C.Y ' B.N.~ Q ! T : + + + 2 7 9 9 x x c q 9 9 2 = = = + + = 0 q @ O @ @ O X N.} ! | C.~ Y T ' ' E ` ! ' S._.sX",
"sXsX[.J V.R K J N.L ~ Q T F @ + @ 7 O 1 4 3 3 4 5 4 0 4 9 7 7 7 9 7 0 h 9 = @ @ + + O . Y C.{ } Y J C.E B.' M.' C.W ].sX",
"sXaX].~ } ! } ' { } Y ' T X + @ @ 4 u N 2.4.u.z.~.u.M l M k y 5 4 4 4 4 4 - 2 O O + O o A Y ~ ~ ` } U ` Y ! | ! B.` *XsX",
"sXpX{.! V.P Z.' J H.Y B.G O @ = & l 0.e.r.}.XXXXn.i.d.|.XX|.}.^.i.y.z.!.k.-.n y + 2 = + . K Y S.} ! ' P B.J L F.m.' '.sX",
"sXpX:XB.' ! M.` ! ~ ! ~ , O + 2 4 5.e.g.}.oXXXXX}.h.l.oXoXoXoXoX.X|.oXoXoX.Xy.6.M - = + o ' T K } J { Q ! m.Q P m.{ *XsX",
"sXpX#XB.' ' Q Q Y ' V.N.@ @ + & a e.y.}.oXoXoXoXXXXXXXoXoXoXoXoXXX.XXXoXoX!.e.e.5.y 7 @ + > Y P { P ! N./ Q ' J ' P -XsX",
"sXsX*XB.E R ! J Q Y U A O + + o n e.n.oXXXoXoXoXoXXXoXoXoXoXoXoXoXXXoXoXoX^.!.j.g.k 0 = @ . ' K ' ! ~ m.' B.' E Q | ].sX",
"sXsX:XF.T ` | ' ~ U B.: o + = & n r.^.oXoXoXoXoXoXoXoXXXoXoXoXoXoXoXoXoXoXoXoXoXoXy.O + + + ! ! Y J.B.Y ! P ' ' m.' {.sX",
"sXsX&XB.Z.` M.M.' ~ m.: O 7 7 * 2.e.}.oXoXoXoXoXoXoXoXoXoXoXoXXXoX.XoXoXoXoXoXoXoXs.* + + o L ` ~ } ! ' ~ { B.M.' Y '.sX",
"sXsX'.~ ' Y E J ' E V.: O = + - 4.i.|.oXoXoXoXoXXXoXoXoXXXoXoXoX.Xg.z.XXoXoXoXoXoXk.3 + + o | | ^ D K ! J L Q ~ ! Y T.sX",
"sXsX#X} Q B.B.R ' Y E : O @ & y 0.l.oXoXoXoXoXoXoXoXoXoXoXoXoXoX.X!.!..XoXXXoXoXoXi.3 O + o G Q } Y { ' ~ ' | Z.P ' '.sX",
"sXsX*X} M.' ' S B.` / > O 9 0 &.e.j.n.a.b.~.oXoXoXoXoXoXoXoXoXoXoXoXoXoXoXoXz.z..Xl.k & + + : ' K S Q ' / T Y ' F.P I.sX",
"sXsX=XB.Z ! ( Y T ' U > O * V r.0.$.z f f z %.w.n..XoXoXoXoXoXoXoXoX.X~.b.b.9.O.9.i.5.3 O O @ ' ! { N.' ! ~ E B.S.' W.sX",
"sXsX*XJ ' Y N.m.` B.T > o & 2.0.c g c $.j f f f j %.g.}..X.XoXXX|.k.%.z j f f 0 f $.4.l & o 1 L { V.} J.' M.V.P C.Y Y.sX",
"sXsX#XE Y ! ~ J ' ' I >   * 3.N g *.h.n.9.%.z f 0 h c e.z.oXoXk.*.j 0 f f j o.%.$.j $.5.* o 5 T } V.L ! ' ' K B.K ' T.sX",
"sXsX'.J N.^ | ' P P P `   * +.a *.e.r.0.9.9.O.3 y y f 4.}.oX Xe.j f f c 9.9.y.i.u.*.j -.- o i G Q S T H.L V.! ` ' Y *XsX",
"sXsX'.V.S D Q { ! W I ) # & t n 0.e.O.; 5 4 - f 4 t u 2.n.XXl.&.i y - k z o.*.4.e.5.M O.- + ) A.! D Y { ' / V.Y ' ' E.sX",
"sXsX*X' { S.F.S P e _ _ w $ r =.r.r.*.5 $.1 4 ,.,.*.b m d.l.5.p n -.o.y * 4 f y 2.e.5.O.% o _ [ ! P V.Y Y M.B.~ R S.'.sX",
"sXsX3X( M.Y E ' E d d.e.- * u 5.y.}.k.9.w.%.w.a.b.n.r.2.d.j.2.p &.s.a.,.c %.,.k 5.j.s.@.% o k _ ! H.Y S.' L ! L Y C.].sX",
"sXsX:X} ' V.} ' ' d j.h.V r i 4.i..XoX.X^.^..XXXoXoXl.y.g.h.3.b 5.j.XX}.^.~.k.!..XoX.X=.% X O.8.[ P Q ! ! ' J M.J.D _.sX",
"sXsX*X} P J } S.P d h.j.d.a u 3.y.}.oXoXoXoXoXoXoXoXz.=.y.h.3.B d.}.XXoXoXoXoXoXoXoXoX-.% * 0.7.J Y ' | ' P ' E D ' `.sX",
"sXsX].P m.M.D W Q @.i.j.h.&.r N e.!.oXoXoXoXoXoXXX.Xy.B e.h.2.b r. XoXoXoXoXoXoXoX.X^.=.; y s...P Z.! ` | W B.' U Z.E.sX",
"sXsX).} E J ! m.Y ) 1.l.h.2.t a 6.l.oXoXoXoXoXoXXXz.2.b 7.h.2.s V g. XoXoXoXoXoXXX}.r.M i w.g...! J T S.' M.Z.V.Q | '.sX",
"sXaX(.B.J / m.~ B.] 1.l.j.3.r i 5.y.z.oXoXoXoXoXXXj.V 2.h.j.7.s b e.|.oXoXoXoXoXn.j.4.u i a.a.[ ' B.E P P ' J.~ Q J '.sX",
"sXsX'.~ U T M.Y P ^ q.t.j.2.r N 6.e.g.XXoXoXoXoX}.2.B r.j.j.5.s s V !.oXXXoXoXoXz.r.+.t i u.f.:.Q ! ! ' Y Q ! F.T T (.sX",
"sXaX:XQ Q U Q Q ! ' :.V j.-.t i 4.e.g.XXoXoXoXoX^.B s 0.h.d.2.s s s y.oXoXoXoXoX}.0.l r k p.5.! Q B.' J | S.M.M.Q ! (.sX",
"sXaX,XY { V.J ! / '  .q.d.r.i t O.e.y.^.oXoXoXoX.X6.@.@.2.2.B B V @.z.XX XXXoXoX}.4.u r *.~.7.L Q T / m.! S ! J Y Z._.sX",
"sXaX*XV.' V./ J ~ ~ ! #.>.,.i t i =.e.i.}.XXoXoXoX^.h.i.e.y.e.6.r.g.l.n.n.XXoX Xh.=.t t *.<.:.^ ! ! T L ` P ' | P V.*XsX",
"sXaX,X! m.L Q ~ ' } ~ Q A.v.y t t a 2.6.y.}..Xz.j.j.h.^..X.X.Xk.g.r.e.r.i.l.}.g.6.n t r o.R. .U } Y ! ` ' P I M.T S.*XsX",
"sXsX*XV.m.m.} B.J Y S { T ] f r t t l 0.e.y.i.e.e.r.g..XoXoXoX.X.Xz.d.5.5.e.e.e.e.l t 5 $X~ { } ! T ! ' ' M.M.L ! V.,XsX",
"sXsX:XQ m.! N.B.J } C.! ' { h r t u u 3.e.e.e.6.3.&.+.3.u.g.s.0.3.3.@.v +.e.r.5.=.l u 5 U.} Y / ! C.B.B.' T } ' } } 2XsX",
"sXsX-XQ M.Q B.B.Y Q N.Q Y { >.r +.+.i =.r.e.=.a C p.v.v.c.c.c.v.v.v.p.$.C j.!.0.n v a 0 :.} ! F ` Q ' Q T ' ' } F.| ,XsX",
"sXaXOXm.V.' J U B.' V.! V.{ 0 y 0.e.n N e.g.i.,.$XrXtXtXtXtXtXtXtXtX%Xx.a.XXoXg.n =.a 0 ]  .Q Y ` Q C.L ! M.V.Q E / =XsX",
"sXaX{.S.} } { K ( Q Y ~ Q ' G $.e.e.N n r.}..Xg.w.+X%X6X6X6X7X7X6X+Xw.s.XXoX}.&.n 5.u >.Y ' ' Y ! Q B.F.' F.' M.Q G.'.sX",
"sXaX*XF.! m.V.S.D.! L m.W R M.g 5.e.5.l 5.n.XX^.5.b =.,.w.a.c.,.V b =.}.oXoXr.i =.5.f #.~ / ^ } ~ S.` ' ! ' ' Y ' } [.sX",
"sXaX'.C.~ { ' ! ! ! C.L ~ ~ / A v e.6.n n y.j.r.e.4.5.0.s.s.0.s m 2.6.g..X}.n N 6.5.g [ U ' ! ' ~ / ~ V.' T } Q { C.*XsX",
"sXaX'.S.Q Q } V.J B.! B.! ! U ( 6 5.e.2.i =.e.e.e.6.e.6.9.O.a O.4.0.e.r.}.5.a 4.y.4.>.J U ~ ~ N.Y ( { ~ ~ Y ` Z.J C.=XsX",
"sXaX(.C.! | Y V.! ~ K Y ! } U ! > % 6.5.n v 6.e.y.y.d.i.e.5.4.i.j.j.j.d.j.n N e.0.%...( ~ K } { / Q Q { ' ' T B.' D.>XsX",
"sXsX1XS.' { ! / ' Y / / Y T | ~ P : r 7.5.i =.e.i.}.XX.X|.}.l..XXXXX!.d.O.a 3.=.k >.Y P ! ~ K Q ^ U { ' Y Z.| ` B. .3XsX",
"sXsX&XS.} } ~ J ! Y Y / / ' { ! ' P : &.@.u m 6.y.}.}. XoXoX|.z.g.j.i.3.i i i u x ) N.J T B.~ J Y Y { V.{ E ' ! B.Q ].sX",
"sXsX2X} Z.} J S.J / | ~ ~ ! Q Y Z./ ' G $ r u &.e.y.e.j.oXXX^.d.e.e.=.i u r z <.#.P ~ Q ! M.L J ' ! Y ' ` ' E ! P N. .sX",
"sXsX5X| B.Z.{ } ' ! Y Y I Y Y T ' ! Z L F < t u n 4.e.d.|.!.d.i.e.5.a r r $.X.' | ' / T } ' Y J m.! Q J Q C.! M.Y { /.sX",
"sXsX5XH.' m.S.~ m./ S.] A A A A F ! F G | Y G i r i &.6.e.e.e.e.9.n r r x.` E D.^ K ~ ~ ' | ^ S | ! ! J { ~ } Y B.V.qXsX",
"sXsX8XS.{ Y { } | Y F G } ! S.U | U T { ' `  .] X.y r i l &.=.+.p t %.<.} } ! L ' { } ' Y { { Y U ~ Y C./ V.T C.' Y.{.sX",
"sXsX9XY.L.G.Y.G.G.! ' Z.S.` T T | K Z.U S.B.! ' Z.P ` ~ ' ~ R ' ' Q J Q ` V.T ! Z.C.H./ G.| C.| ! G.H.K.H.K.G.I.3X:X8XsX",
"sXsXsX9X4X4XqX4X2XL.G.G.P.W.Q.W.Q._.W.{.W.`.W.`.Y.Y.Y.)./.U.T./.).(.].T.T.`.`.].]._.#X1X>X=X{.].&X&X*X<X,X*X2XyXyXpXsXsX",
"sXsXsXsXsXsXsXsXsXsXsXsXsXsXsXsXsXsXsXsXsXsXsXsXsXsXsXsXsXsXsXsXsXsXsXsXsXsXsXsXsXsXsXsXsXsXsXsXsXsXsXsXsXsXsXsXsXsXsXsX"
};
